<?xml version="1.0" encoding="utf-8"?>
<!-- Generator: Adobe Illustrator 22.1.0, SVG Export Plug-In . SVG Version: 6.00 Build 0)  -->
<svg version="1.1" id="Layer_1" xmlns="http://www.w3.org/2000/svg" xmlns:xlink="http://www.w3.org/1999/xlink" x="0px" y="0px"
	 viewBox="0 0 500 500" style="enable-background:new 0 0 500 500;" xml:space="preserve">
<style type="text/css">
	.st0{fill:#FFFFFF;}
</style>
<path class="st0" d="M454.8,0H45.7C20.7,0,0.5,20.2,0.5,45.2v409.1c0,25,20.2,45.2,45.2,45.2h409.1c25,0,45.2-20.2,45.2-45.2V45.2
	C500,20.2,479.8,0,454.8,0z M155.1,431.3c0,7.3-5.9,13.1-13.1,13.1h-56c-7.3,0-13.1-5.9-13.1-13.1V196.7c0-7.3,5.9-13.1,13.1-13.1
	h56c7.3,0,13.1,5.9,13.1,13.1V431.3z M113.9,161.4c-29.4,0-53.2-23.8-53.2-53.2S84.6,55,113.9,55s53.2,23.8,53.2,53.2
	S143.3,161.4,113.9,161.4z M447.6,432.4c0,6.7-5.4,12.1-12.1,12.1h-60.1c-6.7,0-12.1-5.4-12.1-12.1V322.3c0-16.4,4.8-71.9-42.9-71.9
	c-37,0-44.5,38-46,55.1v126.9c0,6.7-5.4,12.1-12.1,12.1h-58.1c-6.7,0-12.1-5.4-12.1-12.1V195.6c0-6.7,5.4-12.1,12.1-12.1h58.1
	c6.7,0,12.1,5.4,12.1,12.1v20.5c13.7-20.6,34.1-36.5,77.6-36.5c96.2,0,95.6,89.9,95.6,139.2L447.6,432.4L447.6,432.4z"/>
</svg>
