<?xml version="1.0" encoding="utf-8"?>
<!-- Generator: Adobe Illustrator 22.1.0, SVG Export Plug-In . SVG Version: 6.00 Build 0)  -->
<svg version="1.1" id="Layer_1" xmlns="http://www.w3.org/2000/svg" xmlns:xlink="http://www.w3.org/1999/xlink" x="0px" y="0px"
	 viewBox="0 0 500 500" style="enable-background:new 0 0 500 500;" xml:space="preserve">
<style type="text/css">
	.st0{fill:#FFFFFF;}
</style>
<path class="st0" d="M500,250c0,138.1-111.9,250-250,250S0,388.1,0,250S111.9,0,250,0S500,111.9,500,250z M204.2,381.9
	c110.9,0,171.5-91.9,171.5-171.5c0-2.6,0-5.2-0.1-7.7c11.7-8.5,22-19.1,30.1-31.2c-10.8,4.8-22.4,8-34.6,9.5
	c12.5-7.5,22-19.2,26.5-33.4c-11.6,6.9-24.5,11.9-38.2,14.6c-11-11.8-26.6-19-44-19c-33.2,0-60.2,27-60.2,60.2
	c0,4.8,0.5,9.4,1.6,13.8c-50.1-2.5-94.5-26.5-124.2-63c-5.1,8.9-8.1,19.2-8.1,30.2c0,20.9,10.6,39.4,26.9,50.1
	c-9.9-0.2-19.1-3-27.2-7.5c0,0.2,0,0.5,0,0.8c0,29.2,20.7,53.5,48.4,59.1c-5,1.4-10.4,2.1-15.9,2.1c-3.9,0-7.6-0.4-11.4-1.1
	c7.6,24,29.9,41.4,56.2,41.9c-20.6,16.1-46.6,25.8-74.9,25.8c-4.9,0-9.6-0.2-14.4-0.9C138.5,371.9,170.2,381.9,204.2,381.9"/>
</svg>
