<?xml version="1.0" encoding="utf-8"?>
<!-- Generator: Adobe Illustrator 22.1.0, SVG Export Plug-In . SVG Version: 6.00 Build 0)  -->
<svg version="1.1" xmlns="http://www.w3.org/2000/svg" xmlns:xlink="http://www.w3.org/1999/xlink" x="0px" y="0px"
	 viewBox="0 0 1920 1080" style="enable-background:new 0 0 1920 1080;" xml:space="preserve">
<style type="text/css">
	.st0{fill:#252527;}
	.st1{opacity:0.51;fill:#111113;}
	.st2{opacity:0.42;fill:url(#SVGID_1_);}
	.st3{opacity:0.84;fill:url(#SVGID_2_);}
	.st4{fill:url(#SVGID_3_);}
	.st5{fill:url(#SVGID_4_);}
	.st6{fill:url(#SVGID_5_);}
	.st7{opacity:0.56;fill:url(#SVGID_6_);}
</style>
<g id="Layer_1">
	<g>
		<rect class="st0" width="1920" height="1080"/>
	</g>
</g>
<g id="Layer_2">
	<rect class="st1" width="1920" height="1080"/>
	<radialGradient id="SVGID_1_" cx="960" cy="540" r="778.8453" gradientUnits="userSpaceOnUse">
		<stop  offset="0.4798" style="stop-color:#000000"/>
		<stop  offset="0.6384" style="stop-color:#050506;stop-opacity:0.6951"/>
		<stop  offset="0.8436" style="stop-color:#151516;stop-opacity:0.3006"/>
		<stop  offset="1" style="stop-color:#252527;stop-opacity:0"/>
	</radialGradient>
	<rect class="st2" width="1920" height="1080"/>
	<linearGradient id="SVGID_2_" gradientUnits="userSpaceOnUse" x1="967.4849" y1="452.496" x2="935.1383" y2="-473.7893">
		<stop  offset="0" style="stop-color:#FFFF79;stop-opacity:0.1"/>
		<stop  offset="1.829536e-02" style="stop-color:#EDED70;stop-opacity:0.1499"/>
		<stop  offset="0.1072" style="stop-color:#9A9A49;stop-opacity:0.3925"/>
		<stop  offset="0.186" style="stop-color:#58582A;stop-opacity:0.6072"/>
		<stop  offset="0.2516" style="stop-color:#282813;stop-opacity:0.7861"/>
		<stop  offset="0.3015" style="stop-color:#0B0B05;stop-opacity:0.9224"/>
		<stop  offset="0.33" style="stop-color:#000000"/>
	</linearGradient>
	<path class="st3" d="M11.8-114.2C-52.2-13.5-113.3,167.3-40,272c97.4,139.1,397.3,94.5,475.9,82.8
		c261.7-38.9,368.5-160,534.5-105.2c90.5,29.9,76.7,75.3,172.4,127.6c220,120.1,588.1,57.2,746.6-169
		c21.9-31.2,126.6-180.6,79.3-319C1825.6-530,355.1-654.8,11.8-114.2z"/>
	<linearGradient id="SVGID_3_" gradientUnits="userSpaceOnUse" x1="-284.5527" y1="1245.6307" x2="443.5893" y2="80.3599">
		<stop  offset="0" style="stop-color:#FFFF79;stop-opacity:0.2"/>
		<stop  offset="7.380247e-03" style="stop-color:#F6F675;stop-opacity:0.2044"/>
		<stop  offset="4.767627e-02" style="stop-color:#C8C85F;stop-opacity:0.2286"/>
		<stop  offset="9.308982e-02" style="stop-color:#9D9D4A;stop-opacity:0.2559"/>
		<stop  offset="0.1419" style="stop-color:#777738;stop-opacity:0.2851"/>
		<stop  offset="0.195" style="stop-color:#575729;stop-opacity:0.317"/>
		<stop  offset="0.2537" style="stop-color:#3B3B1C;stop-opacity:0.3522"/>
		<stop  offset="0.32" style="stop-color:#252512;stop-opacity:0.392"/>
		<stop  offset="0.3974" style="stop-color:#14140A;stop-opacity:0.4385"/>
		<stop  offset="0.4931" style="stop-color:#090904;stop-opacity:0.4959"/>
		<stop  offset="0.6274" style="stop-color:#020201;stop-opacity:0.5764"/>
		<stop  offset="1" style="stop-color:#000000;stop-opacity:0.8"/>
	</linearGradient>
	<path class="st4" d="M217.5-60.9c-17.1,267.3,54.7,407.3,125.1,486c72.1,80.7,138,91.8,187,187c81.9,158.9,9.7,344.2-2.4,375.2
		c-112.9,289.9-480.1,476.5-605.1,387.2c-39.4-28.2-79.8-101.6-35.7-322.8C-327.2,496-293.4,44.6-89.9-69.3
		C-48.4-92.5,43.2-125.8,217.5-60.9z"/>
	<linearGradient id="SVGID_4_" gradientUnits="userSpaceOnUse" x1="1800" y1="-232" x2="1800" y2="-232">
		<stop  offset="0" style="stop-color:#FFFF79;stop-opacity:0.2"/>
		<stop  offset="7.380247e-03" style="stop-color:#F6F675;stop-opacity:0.2044"/>
		<stop  offset="4.767627e-02" style="stop-color:#C8C85F;stop-opacity:0.2286"/>
		<stop  offset="9.308982e-02" style="stop-color:#9D9D4A;stop-opacity:0.2559"/>
		<stop  offset="0.1419" style="stop-color:#777738;stop-opacity:0.2851"/>
		<stop  offset="0.195" style="stop-color:#575729;stop-opacity:0.317"/>
		<stop  offset="0.2537" style="stop-color:#3B3B1C;stop-opacity:0.3522"/>
		<stop  offset="0.32" style="stop-color:#252512;stop-opacity:0.392"/>
		<stop  offset="0.3974" style="stop-color:#14140A;stop-opacity:0.4385"/>
		<stop  offset="0.4931" style="stop-color:#090904;stop-opacity:0.4959"/>
		<stop  offset="0.6274" style="stop-color:#020201;stop-opacity:0.5764"/>
		<stop  offset="1" style="stop-color:#000000;stop-opacity:0.8"/>
	</linearGradient>
	<path class="st5" d="M1800-232"/>
	<linearGradient id="SVGID_5_" gradientUnits="userSpaceOnUse" x1="422.2485" y1="333.8264" x2="1803.6512" y2="1197.0227">
		<stop  offset="0" style="stop-color:#000000"/>
		<stop  offset="0.1525" style="stop-color:#030302;stop-opacity:0.8475"/>
		<stop  offset="0.2817" style="stop-color:#0E0E07;stop-opacity:0.7183"/>
		<stop  offset="0.4024" style="stop-color:#1F1F0F;stop-opacity:0.5976"/>
		<stop  offset="0.518" style="stop-color:#38381B;stop-opacity:0.482"/>
		<stop  offset="0.6299" style="stop-color:#58582A;stop-opacity:0.3701"/>
		<stop  offset="0.7391" style="stop-color:#7F7F3C;stop-opacity:0.2609"/>
		<stop  offset="0.8461" style="stop-color:#AEAE52;stop-opacity:0.1539"/>
		<stop  offset="0.9487" style="stop-color:#E2E26B;stop-opacity:5.125827e-02"/>
		<stop  offset="1" style="stop-color:#FFFF79;stop-opacity:0"/>
	</linearGradient>
	<path class="st6" d="M-11.5,1546.6c-81.8-189.9,219.8-402.9,560.6-670.5C720.8,741.4,726,501.2,822.7,406.9
		c198-193,327.9-201.3,297.3-361.7c-59.8-314-233.3-457.6-166.5-561.5c29.9-46.6,133.4-88,504.6-15.1
		c45.5,24.8,122.9,74.5,168.2,158.9C1808.1-33.5,1186.9,338,1278,817.1c65.7,345.2,437.7,412.1,387.3,590.3
		C1569.1,1747.8,115.5,1841.2-11.5,1546.6z"/>
	
		<linearGradient id="SVGID_6_" gradientUnits="userSpaceOnUse" x1="1530.9723" y1="987.7317" x2="2295.605" y2="987.7317" gradientTransform="matrix(0.986 0.6632 -0.6042 0.8983 557.956 -1396.8267)">
		<stop  offset="5.050644e-02" style="stop-color:#FFFF79;stop-opacity:0.6"/>
		<stop  offset="7.952334e-02" style="stop-color:#E2E26B;stop-opacity:0.6205"/>
		<stop  offset="0.1376" style="stop-color:#AEAE52;stop-opacity:0.6616"/>
		<stop  offset="0.1982" style="stop-color:#7F7F3C;stop-opacity:0.7044"/>
		<stop  offset="0.26" style="stop-color:#58582A;stop-opacity:0.748"/>
		<stop  offset="0.3234" style="stop-color:#38381B;stop-opacity:0.7928"/>
		<stop  offset="0.3888" style="stop-color:#1F1F0F;stop-opacity:0.839"/>
		<stop  offset="0.4571" style="stop-color:#0E0E07;stop-opacity:0.8873"/>
		<stop  offset="0.5303" style="stop-color:#030302;stop-opacity:0.939"/>
		<stop  offset="0.6166" style="stop-color:#000000"/>
	</linearGradient>
	<path class="st7" d="M1229.1,1075.3C1099.7,798.6,1549.8,587,1619.2,519c176.6-172.9,378.6-459.1,546.3-343.4
		c237,163.4,183.7,984.6-254.2,1139.5C1684.2,1395.5,1335.4,1302.8,1229.1,1075.3z"/>
</g>
</svg>
