<?xml version="1.0" encoding="utf-8"?>
<!-- Generator: Adobe Illustrator 22.1.0, SVG Export Plug-In . SVG Version: 6.00 Build 0)  -->
<svg version="1.1" id="Layer_1" xmlns="http://www.w3.org/2000/svg" xmlns:xlink="http://www.w3.org/1999/xlink" x="0px" y="0px"
	 viewBox="0 0 500 500" style="enable-background:new 0 0 500 500;" xml:space="preserve">
<style type="text/css">
	.st0{fill:#F9DC3E;}
</style>
<path d="M341.8,168.6l-0.1-1.1l-1.7,0.1l0.1,1.1C340.1,168.8,341.8,168.6,341.8,168.6z M353.5,196.6l0,0.6l1.2-0.1
	c0-0.4,0.1-1,0.4-1.7l-0.1-1.1C354.5,194.4,354,195.2,353.5,196.6L353.5,196.6z M308.1,231.9c-0.1-1-3.2-4.9-9.3-11.7
	c-0.1-1.3,2-3.1,6.3-5.6l12.3-10.7c2.8-3.5,4.4-9.2,4.9-17.1l-0.1-1.8c-0.5-5.5-4.4-9.8-11.9-13.2c-4.4-3-12.4-4.6-23.9-4.9
	c-9.5,0.8-21.9,4.2-37.2,10.2c-4.2,3-9,6-14.4,9.1l0.1,0.9c0.3,0,0.8-0.2,1.4-0.6c0.6-0.1,1,0.2,1,0.8l0.9-0.5l0.4,0l0,0.4
	c0,0.5-3.3,3.1-10,7.8l0.5,1l-0.4,0l-1.1-0.4c0,0.3-0.4,0.6-1.4,0.6l0,0.4l1.1,1.3c-0.3,0-0.8-0.1-1.5-0.4c-1.5,0.1-3.1,1-4.6,2.5
	l0.6-2.7c2.2-9.7,3.8-18.3,4.6-25.7l-0.1-0.5c-1.5-1-3.1-2.4-4.5-4.2c0-1.1,0-1.8,0-2l-0.1-0.4l-0.4,0.1
	c-4.9,7.3-14.2,19.7-28.1,37.4c-10.6,12.5-16,19.5-16.4,20.9c-4.3,4.5-6.4,7.1-6.2,8.1c-1.1,0.7-1.6,1.5-1.4,2.3
	c-0.3,0.1-0.6,0-0.6-0.4c-1.8,3-4.6,4.9-8.2,5.7l-3.8,0.9c-0.5,0.1-0.8,0.5-0.7,1.1l0.1,0.5l1.4-0.3l0.1,0.4l-3.2,1.3l-5.7,1.3
	l-3,0.2c-0.4,0.4,2.4,0,1.3,0.2l-3.8,0.9c-2.3,0.5-3.5,0.3-3.8-0.6l-0.4,0.1c0.1,0.4,0.1,0.7,0,1l-0.2-0.9l-3,0.7
	c-0.2-1.4-4.3-6.5-12.2-15.2c-0.1-1.7,2.7-4.2,8.4-7.4l16.1-14.2c3.6-4.6,5.7-12.1,6.4-22.3l-0.2-2.4c-0.6-7.2-5.9-13-15.7-17.5
	c-5.8-3.9-16.3-6-31.4-6.4c-12.5,1.1-28.9,5.5-49,13.3c-5.5,4-11.8,8-18.9,11.9l0.1,1.3c0.5,0,1.1-0.3,1.9-0.7
	c0.8-0.1,1.3,0.3,1.3,1l1.3-0.7l0.6,0l0,0.6c0,0.6-4.3,4-13.2,10.3l0.7,1.1l-0.6,0l-1.4-0.5c0,0.4-0.6,0.6-1.9,0.7l0.1,0.7l1.5,1.6
	c-0.5,0-1.1-0.1-2-0.4c-2.9,0.3-5.7,2.3-8.4,6.2l0.7,1.1c2.4-2.2,3.8-3.3,4.2-3.4l0.1,1.8c-0.4,0-1,0.3-1.9,0.7l1.5,2.3
	c2.9-3.1,6.1-5.8,9.6-8.1c1.7,0.4,2.7,1,2.7,1.6l1.3-0.1c9.5-7,18.9-12.1,28.2-15.2l0.1,1.3c-1.7,2.6-2.9,3.9-3.5,4
	c0.1,0.9,0.4,1.7,0.9,2.3c0.1,1.6-4.1,12.3-12.7,32c-19.5,45.9-35.8,79.9-49.1,101.8c0,0.4,0.3,1,0.8,1.8c3.3-0.8,5.3-1.6,6.2-2.4
	l0.7-0.1l0.1,1.3l1.2-0.1l1.3-0.7c0,0.4,0.4,0.6,1.3,0.5l0.1,1.3c0.1,1.2-0.6,3.1-2.1,5.6c-1.3,1.5-2.8,4.7-4.3,9.5l0,0.6l1.2-0.1
	c5.3-5.9,9.3-11.8,12.1-17.4c15.5-4.5,27.3-9,35.4-13.4c8.2-0.7,14.5-2.9,18.8-6.4l-0.1-0.7l-3.1,0.9l-0.7,0.1l-0.1-0.7
	c6-0.9,10.2-2.2,12.5-4.1c11.8-9.1,20.6-15.5,26.6-19.3c12.3-9.1,20.4-17.9,24-26.5c0.7-0.2,1.4-0.3,2.1-0.5
	c1.7-0.1,2.7-0.1,2.9-0.2c-0.1-0.3,0.1-0.5,0.4-0.6c2.8-0.3,1.4,0.2,3.2-0.2l4.6-1.1c-0.3,0.1-0.4,0.2-0.3,0.5l0.7-0.4
	c-0.1,0-0.3,0-0.4-0.1l0.8-0.2l-0.4,0.2c0.5,0.1,1.1,0,1.7-0.1l0.3,1.4l-21.1,33.6l-4.7,5.9l-2.3,7.7l0.4-0.1l2.3-1l-0.7,3l0.2,0.9
	l0.6,0.8c-0.3,0.1-0.4,0.3-0.3,0.6l0.1,0.5l1-0.2c1.4-1.2,2-2.3,1.8-3.3c1.5,0.3,2.5,0.4,3,0.2l0.1,0.5c-0.9,0.2-1.4,1-1.5,2.2
	l0.1,0.5l0.5-0.1c7.7-8.4,26.4-37,41.5-56.4c-0.5-2.1,7.4-5,23.6-8.8l0.5-0.1c0.6,2.5-0.7,8.7-3.8,18.5c-2,5.9-2.9,9.1-2.8,9.7
	c-2.6,7.8-3.8,12.1-3.6,12.7l-5.7,18.8c-3.7,9.7-6.6,19.8-8.5,30.5c0.3-0.1,0.8,0,1.6,0.1l0.8-0.7c0.1,0.3,0.3,0.4,0.6,0.4l-0.3-1.4
	l2.5-0.1c0.7-0.2,1.4-1.1,1.9-2.8c-0.1-2.5,0.4-3.9,1.5-4.2c1.5-6,2.5-9.1,2.8-9.2c1.4-6,2.5-9.4,3.2-10.3
	c2.2-7.8,3.8-11.8,4.8-12.1l0.2,1l-1.6,4.1c-2.8,12.3-5.6,22-8.4,29.1l0.8,3.5l0.5-0.1c6.9-14.7,16.7-43.9,29.6-87.5
	c0.4-3.8,2.2-6.8,5.5-8.9l-0.7-0.8l-0.1-0.4c1.5-0.3,2.5-0.9,3.1-1.7c-0.1-0.3-1.4-0.8-3.9-1.5l6.4-27.5c1.4-1.3,2.2-1.9,2.5-1.9
	l0.1,1.4c-0.3,0-0.8,0.2-1.4,0.6l1.2,1.7c2.2-2.4,4.6-4.5,7.2-6.2c1.3,0.4,2,0.8,2.1,1.3l1-0.1c7.3-5.3,14.4-9.2,21.5-11.5l0.1,0.9
	c-1.3,2-2.2,2.9-2.7,3c0.1,0.7,0.3,1.3,0.6,1.8c0.1,1.2-3.1,9.3-9.5,24.3c-14.8,34.8-27.2,60.6-37.3,77.3c0,0.3,0.3,0.8,0.7,1.4
	c2.5-0.6,4.1-1.2,4.7-1.8l0.4,0l0.1,0.9l1-0.1l0.9-0.5c0,0.3,0.4,0.4,1,0.3l0.1,1c0.1,0.9-0.4,2.3-1.6,4.2c-1.1,1.1-2.2,3.5-3.4,7.2
	l0,0.5l1-0.1c4-4.5,7.1-8.9,9.2-13.3c11.7-3.5,20.7-6.8,26.9-10.1c6.3-0.6,11.1-2.2,14.3-4.9l0-0.5l-2.4,0.7l-0.5,0l0-0.5
	c4.6-0.7,7.8-1.7,9.5-3.1c8.9-6.9,15.7-11.8,20.2-14.6C302.3,251.4,308.9,241.4,308.1,231.9L308.1,231.9z M305.6,232.5l0.3,3.7
	c-0.4,0.9-0.9,1.4-1.4,1.4l-0.6-6.3C305.1,231.7,305.6,232.1,305.6,232.5L305.6,232.5z M26.7,202.5l-0.6,0l-0.1-1.1l2.5-0.2l0,0.6
	C28.2,201.8,27.5,202.1,26.7,202.5L26.7,202.5z M14.3,326.7c-1.5-0.7-2.8-0.9-3.9-0.8l-0.1-1.8c-0.1-0.7,0.3-1.2,1.2-1.4
	c0.8-0.1,1.3,0.5,1.4,1.7c2.1-2.6,3.3-3.9,3.5-4l1.4,0.6C17.3,324.7,16.1,326.6,14.3,326.7z M147,187.9c-0.6,0.1-1.9-1.9-3.7-5.7
	l-0.1-1.1c1.2-0.1,2.4,1.8,3.7,5.7L147,187.9z M145.2,174.2l-0.5,1.2l-18-7.5C138.7,168.3,144.9,170.4,145.2,174.2z M69.1,239.5
	l-2.5,0.2l-0.1-1.1l2.5-0.2L69.1,239.5z M67.1,200.3l0.6,0l0.1,1.8c-0.6,0-1.4,0.9-2.3,2.6l-0.1-1.3C66.5,202.1,67.1,201,67.1,200.3
	L67.1,200.3z M61.7,212.9l0.2,2.4l-0.6,0l-0.2-2.4L61.7,212.9z M58.9,217.4l1.2-0.1c-0.1,2-0.7,3.1-1.7,3.1l-0.6,0
	C58.6,219.1,59,218.1,58.9,217.4z M56.8,223.6l0.7-0.1l0,0.6l-1.1,1.9l-1.2,0.1l0-0.6C56.4,225.5,56.9,224.9,56.8,223.6L56.8,223.6z
	 M54.8,229.3l-0.4,3l-0.6,0l-0.3-3L54.8,229.3z M34.1,288c-0.8,4.1-1.7,6.2-2.6,6.3l0-0.6C31.2,291.7,32.1,289.8,34.1,288L34.1,288z
	 M30.3,296.2l0,0.6c0.1,0.8-0.3,1.3-1.1,1.3l0-0.6C29.1,296.9,29.5,296.4,30.3,296.2z M29.2,313.3l1.9-0.2l0.1,0.7
	c-0.5,0-1.1,0.3-1.9,0.7l-1.2,0.1C28,314,28.4,313.5,29.2,313.3L29.2,313.3L29.2,313.3z M83.7,296.5c-10.8,5.3-17.1,8.9-19,10.8
	c-11.6,4.1-17.4,6.6-17.3,7.6c-10.4,4.1-17.2,7.1-20.4,9c-0.8,0.1-1.9-0.2-3.4-0.9c-0.2-2.1,0.8-3.8,2.8-5.2
	c1.8-0.1,3.5,0.1,5.2,0.8c1.9-1,5.3-2.1,10-3.3l-0.1-1.3l-3.8,0.3c0.5-0.7,4.2-2.4,11.1-5.2l1.9-0.2l0,0.6c-3.3,0.3-5.1,1.3-5.5,3
	c0.1,0.8,0.5,1.1,1.3,1c2.5-1.5,3.7-2.5,3.6-2.7c4.7-0.9,17.6-7.7,38.8-20.3l0.1,1.1C89.2,292.3,87.4,293.8,83.7,296.5L83.7,296.5z
	 M51.2,307.2c3.1-0.3,5.7-1.5,8-3.7c0.9-0.1,1.4,0.3,1.4,1c-1.5,0.1-4.4,1.4-8.7,3.8l-0.6,0L51.2,307.2L51.2,307.2z M103.6,266.9
	l-16.2,12.9c-12.1,7.9-18.6,11.9-19.5,12c-19.2,10.6-31.2,16.1-35.8,16.5l-0.7,0.1c0.6-2.2,9.1-19.7,25.7-52.6
	c7.3-0.6,18.8-4,34.4-10.2l3.8-0.3c7.9-0.7,13.9,0.8,17.8,4.5l0.2,2.4C110.4,260.5,107.1,265.5,103.6,266.9L103.6,266.9z M71.9,249
	l2.6-0.2l0,0.6l-2.6,0.2L71.9,249z M108.6,242.8l1.9-0.2c1.8,0.8,2.7,1.6,2.8,2.2l0,0.6C111.6,245.6,110,244.7,108.6,242.8z
	 M113.8,213.2c-1.7,2-6.3,5.5-13.9,10.4c-2.5,0.2-11.8,3.8-28,10.9c-0.8-0.4-1.7-0.5-2.6-0.4l-0.1-1.1c-0.2-2.3,0.8-5.2,3.1-8.8
	c1.3-6.6,2.6-10.4,4.1-11.3l13.4-30.2c-0.1-1.9,2.7-3.3,8.6-4.3l1.9-0.2l0.1,1.7c5.8-0.9,9.4-1.4,10.8-1.5
	c10.7-0.9,16.2,1.3,16.7,6.4l1.2-0.1l-0.3-3.1l1.3-0.1c3.1,1.7,4.8,3.8,5,6.3c0.1,1.7-0.8,3.8-2.7,6.3c-0.8,0.1-1.3-0.5-1.4-1.7
	l-1.3,0.1l-0.3,3.7c-5.4,8.1-9.4,12.3-11.8,12.5C115.7,211.7,114.4,213.2,113.8,213.2z M122.1,234.4c-1.1-0.7-2-1.1-2.7-1l-0.1-1.8
	l1.2-0.1l2.7,1.6C123.3,233.9,122.9,234.3,122.1,234.4L122.1,234.4z M130.6,244.5c1.2,0.5,1.9,1,2,1.5l-0.6,0.1l0,0
	c-0.1,0-0.3,0-0.4,0.1l-0.9,0.7L130.6,244.5z M131.4,249.6l-0.1-0.5l1.5-0.4l0.1,0.5L131.4,249.6z M135.1,253.8
	c1.6-0.3,2.4-0.4,5.3-1l0.1,0.5l-5.6,1.3C135,254.3,135.1,254,135.1,253.8z M140.6,256.1c-2.4,0.2-1.8-0.1-5.6,0.8l-0.1-0.5l4.7-1.5
	l2.2-0.5l0.2,0.9C141,255.5,141.8,255.5,140.6,256.1z M145.6,254.9c-0.6,0.1-1-0.1-1.3-0.7l1.4-0.3c0.6-0.1,1,0.1,1.2,0.7
	L145.6,254.9L145.6,254.9z M159,240.4l-0.1-0.5l2.3-0.6l0.2,0.9L159,240.4z M173.4,328.7c0.1-0.7,0.2-1.1,0.1-1.5l0.5-0.1
	c0.6-0.1,1,0.1,1.1,0.7l0.1,0.5L173.4,328.7L173.4,328.7z M183.5,244.2l-1-0.2c-1.7,0.7-3.1,1.1-4.2,1.4l-1,0.2
	c-0.6,0.1-1-0.1-1.2-0.7l6.7-1.5l2.2-1l0.7,0.8C184.7,243.5,184,243.8,183.5,244.2L183.5,244.2z M188.7,242.5l-0.1-0.5
	c0.3-0.1,0.8-0.3,1.3-0.8l4.8-1.1l0.1,0.5C192.2,241.3,190.2,241.9,188.7,242.5L188.7,242.5z M189.5,232.9c-0.3,0.1-0.8,0.4-1.3,0.8
	c-0.1-0.3-0.7-0.3-2,0c-0.2-0.9,3.3-2.2,10.6-3.9l1-0.2l0.2,0.9C192.9,231.9,190,232.7,189.5,232.9L189.5,232.9z M202.4,218.9
	c-0.5,5.9-2.6,9.2-6.2,10l-0.1-0.5l-3.2,1.3l-1.4,0.3c-0.7,0.2-1.4,0.1-2,0l-0.3-1.3c-0.1-0.5,4.6-7,14.1-19.4l1.1,0.2
	C204.6,211.2,204,214.3,202.4,218.9L202.4,218.9z M225.2,199.4l-0.4,0l-0.1-0.9l1.9-0.2l0,0.5C226.3,198.9,225.8,199.1,225.2,199.4
	L225.2,199.4z M215.8,293.7c-1.1-0.5-2.1-0.7-2.9-0.7l-0.1-1.4c0-0.5,0.3-0.8,0.9-1c0.6-0.1,1,0.4,1.1,1.3c1.6-2,2.5-3.1,2.7-3.1
	l1,0.4C217.9,292.2,217.1,293.6,215.8,293.7L215.8,293.7z M316.5,188.4c-0.5,0-1.4-1.4-2.8-4.4l-0.1-0.9c0.9-0.1,1.9,1.4,2.8,4.3
	L316.5,188.4L316.5,188.4z M315.1,177.9l-0.4,1l-13.6-5.7C310.2,173.4,314.9,175,315.1,177.9z M257.3,227.5l-1.9,0.2l-0.1-0.9
	l1.9-0.1L257.3,227.5L257.3,227.5z M255.8,197.7l0.5,0l0.1,1.4c-0.5,0-1.1,0.7-1.8,2l-0.1-0.9C255.4,199,255.8,198.2,255.8,197.7
	L255.8,197.7z M251.7,207.3l0.1,1.8l-0.5,0l-0.1-1.8L251.7,207.3z M249.6,210.7l1-0.1c-0.1,1.5-0.5,2.4-1.2,2.4l-0.5,0
	C249.4,212,249.6,211.2,249.6,210.7L249.6,210.7z M248,215.4l0.4,0l0,0.5l-0.8,1.5l-1,0.1l0-0.5C247.7,216.8,248.1,216.3,248,215.4
	L248,215.4z M246.5,219.7l-0.3,2.4l-0.4,0l-0.2-2.3L246.5,219.7L246.5,219.7z M230.8,264.3c-0.6,3.1-1.3,4.7-2,4.8l0-0.4
	C228.6,267.1,229.3,265.7,230.8,264.3z M227.8,270.6l0,0.4c0.1,0.7-0.2,1-0.9,1.1l0-0.5C226.9,271.1,227.2,270.8,227.8,270.6
	L227.8,270.6z M227,283.5l1.5-0.1l0,0.5c-0.3,0-0.8,0.2-1.4,0.6l-1,0.1C226.1,284,226.4,283.7,227,283.5L227,283.5z M268.4,270.8
	c-8.1,4-12.9,6.7-14.4,8.1c-8.8,3.1-13.2,5-13.2,5.8c-7.8,3.1-13,5.4-15.4,6.8c-0.6,0-1.4-0.2-2.5-0.7c-0.1-1.6,0.6-2.9,2.1-3.8
	c1.4-0.1,2.7,0.1,3.9,0.6c1.5-0.7,4-1.5,7.6-2.5l-0.1-0.9l-3,0.2c0.4-0.5,3.2-1.8,8.5-4l1.5-0.1l0,0.4c-2.5,0.2-3.9,1-4.2,2.3
	c0,0.6,0.4,0.9,1,0.8c1.8-1.2,2.7-1.9,2.7-2.1c3.5-0.6,13.3-5.8,29.4-15.4l0.1,0.9C272.5,267.6,271.2,268.7,268.4,270.8L268.4,270.8
	z M243.7,278.9c2.4-0.2,4.4-1.1,6.1-2.8c0.6-0.1,1,0.2,1,0.8c-1.1,0.1-3.3,1-6.6,2.8l-0.5,0L243.7,278.9L243.7,278.9z M283.6,248.3
	l-12.3,9.9c-9.2,6-14.1,9-14.9,9.1c-14.6,8-23.6,12.2-27.2,12.5l-0.5,0c0.4-1.7,7-15,19.6-39.9c5.5-0.5,14.2-3.1,26.1-7.8l3-0.3
	c6-0.5,10.5,0.7,13.4,3.5l0.1,1.8C288.7,243.4,286.2,247.1,283.6,248.3L283.6,248.3z M259.5,234.7l1.9-0.2l0,0.5l-1.9,0.2
	L259.5,234.7z M287.4,229.9l1.5-0.1c1.4,0.7,2.1,1.3,2.1,1.7l0,0.4C289.7,232.1,288.5,231.4,287.4,229.9z M291.2,207.5
	c-1.3,1.5-4.8,4.2-10.5,7.9c-1.9,0.2-9,2.9-21.2,8.2c-0.6-0.2-1.3-0.3-2-0.3l-0.1-0.9c-0.1-1.8,0.6-4,2.3-6.7c1-5.1,2-7.9,3.1-8.6
	l10.3-23c-0.1-1.4,2.1-2.5,6.5-3.3l1.5-0.1l0.1,1.4c4.3-0.7,7.1-1.1,8.2-1.2c8.1-0.7,12.3,0.9,12.7,4.9l1-0.1l-0.2-2.2l1-0.1
	c2.4,1.3,3.6,2.8,3.8,4.7c0.1,1.3-0.6,2.9-2,4.8c-0.6,0.1-1-0.4-1.1-1.3l-1,0.1l-0.3,2.8c-4.1,6.2-7.1,9.4-9,9.6
	C292.7,206.3,291.7,207.5,291.2,207.5L291.2,207.5z M295.5,222.8l-0.1-1.4l1-0.1l2.1,1.3c0,0.6-0.3,0.9-0.9,1
	C296.7,223.1,296,222.8,295.5,222.8L295.5,222.8z M124.1,312.3l-1,0.2l-0.8,0.7c0.1,0.6,0.5,0.8,1.1,0.7c0.6-0.1,0.9-0.5,0.7-1.1
	L124.1,312.3z M120.4,305.1l0.1,0.5c0.6-0.1,0.9-0.5,0.7-1.1l-0.1-0.5C120.6,304.1,120.3,304.5,120.4,305.1L120.4,305.1z
	 M146.4,243.4l1.1-0.3l-0.2-1l-1.1,0.3L146.4,243.4L146.4,243.4z M480.6,271.4c-11.2,2.5-12.6,2.1-15,2.2l0.1,0.9l1-0.1l0.6,0
	l-0.1-0.1l1.2-0.5c11.1-1.2,12.4-0.8,12.3-2L480.6,271.4z M420.3,279.4l0.1,0.9h0.1l-0.1-0.9H420.3L420.3,279.4z M413.4,255.1
	l-1-0.3c-0.8,2.2-1.2,3.5-1.2,3.8l0,0.4C412,259,412.7,257.7,413.4,255.1z M482.9,271.2l0.1,0.9l1.6,0.3l-0.1-0.9L482.9,271.2
	L482.9,271.2z M406.7,280.6l-2.5-0.3l-0.4,1l0,0.5l14.9-1.3l-0.1-0.9L406.7,280.6L406.7,280.6z M399.9,247.9l0-0.5l-0.5,0l-0.9,0.6
	l0.5,0.9C399.6,248.8,400,248.5,399.9,247.9L399.9,247.9z M490,264.5l0.7-0.1c0.4,0,0.6-0.4,0.6-1l-0.4-0.9
	c-2.5,0.2-3.7,0.3-5.8,1.5l0-0.5l-3.1,0.3c-0.1-0.9-0.3-1.4-0.7-1.4l-1.6,0.1c-1.8,0.1-2.7,0.1-3.6,0.8c0-0.3-0.1-0.5-0.3-0.5
	l-1.8,0.1l-1,0.6c0-0.3-0.1-0.5-0.3-0.5l-0.6,0.6l0-0.5l-2.5-0.2l-0.6,0l0.1,0.9l1.3,0.3l1.2-0.1c0.4,0.3,0.8,0.3,1.4,0.3l1-0.5
	l0,0.4c-5.8,1.4-5.7,1.2-9.7,1.8c-0.4-0.3-0.8-0.4-1-0.4l-0.1,0.1c-0.4,0-0.7-0.3-0.7-0.8l2.1-0.3c0.1,0,0.3,0.1,1.4,0.4
	c1.7-0.8,1.7-1.1,2.6-1.2l-0.1-0.9c-5.7,1.1-3.4,0.4-10.5,1l-0.3,0l-0.1-0.9c9.1-1.1,6.1-0.5,9.2-1.4c0,0.3,0.1,0.5,0.3,0.5
	c0.3-0.3,0.8-0.6,1.3-0.6l0.6,0c3.2-0.3,4.3,0.4,10.6-1.4l0,0.4l1-0.5l1-0.1c-0.1-0.9,1.3-1.1,1.8-1.1l-0.1-1
	c-11.1,2.2-14,1.6-17.1,2.5l0-0.4c-2.9,0.5-3,0.3-3.8,0.3c-0.2,0-0.6,0.2-0.9,0.6c0-0.3-0.1-0.5-0.4-0.5c-0.1,0-0.1,0-0.2,0
	l-9.4,1.5c0-0.3-0.1-0.4-0.4-0.4c-4.9,1-3.6,1.2-10.1,1.8c-0.3,0-0.7,0.2-1.2,0.5c0-0.3-0.2-0.4-0.5-0.4l-4,0.3l-2.7,0.7
	c0-0.3-0.2-0.4-0.5-0.4c-1.5,0.4-2.8,0.7-3.9,0.7h-0.1c-0.7,0.1,0.3-0.2-0.2-0.4l-0.8,0.5c-1.2,0.1-0.6-0.1-4.6,0
	c-7.1,0.9-6.3,1-7.1,1l-2.7-0.2c0,0.3-0.1,0.4-0.4,0.4c-3-0.4-4.6-0.9-4.6-1.4c0.4-2.9,1.1-4.3,2.1-4.4l0.5,0l-0.4,1l0.5,0
	c1-0.5,1.4-1,1.4-1.4l-0.1-1l-1,0.1l-0.1-0.9c-0.1-0.7,0-1.3,0.3-1.8l2.2-3.5l0.1,0.9l1-0.1l-0.1-0.9l-0.6-0.8
	c0.8-0.7,1.4-1,1.8-1.1l0-0.5l-1.4,0.1l-0.1-1.4c2.8-5.8,4.1-9.2,4.1-10.2l1,0.4c0.6,0,0.9-0.4,0.9-1.1l-1,0.1l0-0.4
	c-0.1-0.7,0.1-1.4,0.4-2c1.5-1.6,2.2-3.2,2.1-4.8c0.3,0,0.4,0.1,0.5,0.4c1.3-0.7,2.3-2.7,3-5.9c2.3-4.1,5.5-12.4,9.8-24.7
	c8.1-21.8,7.8-24.1,8.9-29.3l-1,0.1c0.1,0.7-0.1,1.3-0.4,1.9c-0.7-0.3-1.2-0.4-1.5-0.4l0-0.4c-0.1-1.9,0.6-4.1,2.4-6.8l0.4,0
	l0.8,3.2l1-0.1c0-0.2,0.2-1.5,0.7-3.8c0-0.5-0.4-0.8-1.1-0.8l-0.9,0.6c-0.1-0.7,0-2.4,0.1-5.2l-0.5,0c-0.8-0.8-1.2-1.5-1.3-2
	l-5.3,0.5c0-0.4-0.2-0.9-0.6-1.6c0-0.5,1.1-1,3.6-1.4l1.1,0.4l1-0.6c0,0.3,0.2,0.5,0.6,0.4l1-0.6c0,0.3,0.2,0.5,0.6,0.4l0.5,0
	l-0.1-1.1c-0.7,0.1-2.7,0.1-5.8,0l-1,0.7l0-0.6c-24.7,2-38.8,3.2-42.1,3.5c-0.4,0-2.2,0-5.2-0.1c0,0.4-0.3,0.6-1.1,0.7l-1.1-0.5
	l-3.6,0.9c-0.8,0.1-2.3,0-4.3-0.2c-0.6,0.4-1.2,0.7-2,0.8c-0.4,0,5.3-0.3,10.6-0.7c-0.6,0.4-1.4,0.7-2.6,0.8c-0.8,0.1-1.5,0-2.1-0.4
	c-0.8,0.4-3.4,1-7.8,1.8l-1.1-0.4l-17.2,2.7c-0.7-0.3-1.4-0.4-2.3-0.4c-0.9,0.1-2.5,0.4-4.6,1l-8.3,3.5l0.6,1c0.4,0,1-0.3,1.7-0.7
	l2.9,0.3l-0.4,2.8c-2.7,1.2-4.3,3-4.8,5.3c-4.1,1.8-6.1,3.1-6.1,3.9l0,0.5l0.6,0l1.1-0.6l1.3,1.5l0.2,2.1
	c0.1,0.7-6.8,15.1-20.6,43.4c-11.9,27.3-18.2,42.2-18.8,44.9c-4.1,1.1-6.4,2.8-7.1,5c0.1,0.7,1.3,1.2,3.6,1.4l0.1,1.1l-1.1,1.8
	l0.2,2.1c0.1,1.1,3.1,2,9,2.5c0-0.4,0.1-0.6,0.6-0.6c0.1,1.3-0.3,3.9-1.1,7.7l0.6,0c2.4-3.3,3.6-5.6,3.5-6.9l0.5,0
	c0.6,0,1.2,0.6,2,2.1c-0.7,0.3-3.3,6.2-7.7,17.6l0.6,1l0.6,0c5.4-13.7,8.8-21.3,10.2-22.7c7.1-0.6,19.4-1.9,36.9-3.8l1.1-0.7
	c0,0.4,0.3,0.6,0.7,0.5l1.1-0.1l1.1-0.7c0,0.4,0.3,0.6,0.7,0.5l13.2-1.1c3.5-0.3,5.2-1.4,5-3.2c0-0.5,2-1,6.2-1.6
	c0.4,0,1,0.1,1.8,0.3c0-0.3,2.1-0.7,6.3-1c0.1-2.2,0.8-3.4,2.1-3.5l-0.1-1.1c-1.2,0.1-2.5,0.4-4.1,0.9c-2.8-0.1-4.5-0.4-5.3-0.6
	c-0.7,0.4-1.3,0.6-1.7,0.7l-9.2,0.3l-1.1,0.6c0-0.3-0.3-0.5-0.7-0.4l-0.5,0l-1.2,0.6c0-0.3-1-0.6-2.9-0.8l-1.2,0.7l-2.3,0.2l0-0.6
	c11.9-1.3,17.7-2.9,17.6-4.8c0.8-0.1,1.2,0.3,1.3,1.1l3.5-0.9l-0.1-1.1l-28.4,0.8c0,0.4-0.1,0.6-0.6,0.6l-3.5-0.3
	c-0.9,0.1-1.6,0.3-2.2,0.8l-1.3-0.5c-3.6,0.3-6.2,0.7-8,1.3c-2.4-0.2-5.1-0.1-8.1,0.1l-6.4,0.6l-2.9-0.3c-0.1-1.9,3.5-11.1,11-27.7
	c2.2-5.6,4.2-9.1,6.1-10.4c0.4,0,1,0.1,1.8,0.4l4.5-1.5l2.3,0.4c3.9-0.3,8.4-1.4,13.6-3.4c1.3-0.1,2.2,0,2.9,0.3l3.5-0.8l10.3-0.9
	c4.4-0.4,9.1-1.3,14.3-2.9l-0.1-1.1c-1.9,0.2-2.9-0.1-3-0.9c-0.1-1.4-1.5-2-4.2-1.8l-0.1-1.1l2.8-0.8l7.4-0.6l-0.1-1.1
	c-0.3,0-1.8,0-4.6-0.1l-0.1-1.1l2.9-0.3c0.8-0.1,1.1-0.4,1-1.2c-3.9,0.1-5.8-0.1-5.9-0.6c-27,1.3-40.5,1.6-40.6,0.7
	c-0.4,0-1,0.3-1.7,0.7l-0.7-1.1c7.1-15.2,11.3-22.8,12.6-22.9c0,0.6-0.3,1.5-0.9,2.8l0,0.5l1.1-0.1c2.8-6.8,5.2-10.3,7.2-10.4
	c8.5-0.7-1.2-1.3,16.9-4.1c0.7,0.3,1.3,0.5,1.6,0.4c7.1-1.4,17-2.9,29.7-4.5l-0.1-1.1l-6.8,0.6l-0.1-1.1c0.8-0.1,1.5-0.3,2-0.8
	l0,0.6c0.4,0,0.9-0.3,1.5-0.7c1.2-0.1,2.1,0,2.7,0.3c2.4-0.6,4.3-1,5.7-1.1l4.2-0.4c1-0.7,1.5-1.3,1.5-1.8l0-0.5
	c-1.1,0.1-2.3,0-3.7-0.2c0-0.6,0.3-1,1-1.2l7.9-0.7l3.6-0.9c0,0.4,0.2,0.6,0.5,0.6c0.4,0,0.9-0.3,1.5-0.7c0.2,0,0.4,0,0.6,0.1
	c-0.5,1-1,2.4-1.6,4.3l-1,0.1c-0.1-0.7-0.3-1.3-0.6-1.9l-0.5,0c-9.6,26.7-13.9,39.1-22.7,59.6c-1.6,5.2-3,8.1-4.2,8.8
	c0,0.6,0.4,0.9,1,0.8c0.2,2.6-0.4,5.1-1.8,7.6c-4.1,11.8-6.8,18.2-8.2,19.4l0.9,5.6c0,0.6-0.3,0.9-0.9,1l-1,0.1
	c-0.1-1.5-0.7-2.3-1.7-2.2l-0.5,0c-1.3,2-2.2,4.2-2.8,6.8l1-0.1c1.3-0.8,1.9-1.8,1.8-3l1.9-0.2l1.1,0.4c-0.9,1.4-1.3,2.5-1.2,3.4
	l0.5,0.9l-1.3,2.9l0,0.5c1.1-0.1,2.3,0.3,3.6,1c0.9-0.1,1.8-0.5,2.9-1.2c1.1-0.1,5.2-0.1,12.3-0.1l3.6-1.2c4.3,0,5,0.1,8.8-0.3
	l1.5-0.1l0.8-0.6l0,0.5c3.9-0.3,4.2-0.1,7.3,0.3l0,0.5l-2.2,0.2l0.1,0.9c0.7-0.1,1.3-0.3,1.7-0.7c0.6,0,0.9,0.3,0.9,0.9
	c-0.9,0.1-1.9,0.3-3,0.7l-1-0.3c-1.5,0.4-1.2,0.5-2.2,0.6l-1.5-0.3c0,0.3-0.1,0.4-0.4,0.4c0,0.6,0.4,0.9,0.9,0.8l1.5-0.1l8.1-0.7
	l3.1-0.7c0,0.3,0.1,0.4,0.4,0.4l1.5-0.6l2.8-0.2c2.1-0.2,2.1-0.3,6.7-1.1c0-0.3,0.1-0.4,0.3-0.4l0,0.4c7.6-1.3,8-1.4,9.2-1.8
	l0.1,0.2c1.9-0.4,0.8-0.3,1.3-0.7c0,0.3,0.1,0.5,0.3,0.5l1.3-0.1l-0.1-1l-2.7,0l0-0.1c-0.1,0-0.2,0-0.3,0.1h-0.4v0.1
	c-1.8,0.4-1.8,0.1-3,0.2l-6.7,0.4l0-0.5l3.8-0.5l1.4-0.1l0.8-0.6l0,0.5c5.3-0.4,7.2,0.9,31.7-4.3c1.3-0.1,1.2-1.2,2.1-3.5
	c-0.4,0-0.9-0.1-1.3-0.3c-2,0.8-3.1,0.4-7,1c-0.3,0-0.6-0.3-0.7-0.8l0-0.4l3.8,0.1c0.7-0.1,2.1-0.2,4.1-1.3
	C490.3,264.3,489.5,264.5,490,264.5L490,264.5z M308.6,267.4l-1.7,0.1c-0.1-0.7,0.8-3.4,2.8-7.9l1.1-0.1
	C310.8,260.6,310.1,263.2,308.6,267.4z M310.7,259l0-0.5c0-0.6,0.3-1,1.1-1.2l0,0.5C311.9,258.5,311.5,258.9,310.7,259z
	 M333.7,276.8l0,0.5l-2.9,0.3l0-0.5L333.7,276.8L333.7,276.8z M330.2,276.5c0,0.6-0.8,1.3-2.8,1.9l-3.5-0.3l-1.1,0.1l-0.1-1.1
	L330.2,276.5L330.2,276.5z M353.5,169.3l-1.7,0.1l0-0.6c0-0.6,0.3-1,1-1.2l0.6,0l1.2,0.5C354.6,168.8,354.3,169.2,353.5,169.3z
	 M379.9,164.2l0.6,0l0.1,1.1l-1.6,0.1C378.9,164.7,379.2,164.3,379.9,164.2z M373.2,166.5l-2.6-0.3l0-0.5c3.4-0.3,4.6-0.7,6.7-1.3
	c0,0.4,0.4,0.6,1.1,0.5l0.1,1.1l-1,0.1c-0.8,0.1-1.5,0-2.1-0.4C374.6,166.1,374,166.4,373.2,166.5L373.2,166.5z M376.5,176l0-0.5
	l4.2-0.4l0,0.5L376.5,176z M381,172.3l0-0.6l2.1-0.2l0,0.6L381,172.3z M381.5,165.1l-0.6,0l0.5-1.1l4.7-0.4l0,0.6
	C385,164.3,383.4,164.6,381.5,165.1z M383.9,175.3l-0.1-1.1l2.1-0.2c0.7-0.1,1.1,0.3,1.1,1L383.9,175.3L383.9,175.3z M396.4,158.3
	l-2.7,0.7l-0.5,0c-1.3,0.1-2.9,0.1-4.8-0.1C391.9,158.7,395.2,158.4,396.4,158.3L396.4,158.3z M393.6,170l0,0.5l-3.6,0.3l0-0.5
	C389.9,170.4,393.6,170,393.6,170z M399.5,172.9c0-0.4-0.7-0.7-2.2-0.9l-3.6,1l-2.8,0.1c-0.6-0.4-1-0.7-1-1l3.2,0.2l7.3-1.2l3.7,0.1
	l0,0.6C402.4,172.1,400.8,172.4,399.5,172.9z M437.1,163.2c0.4,0,0.7,0,0.8,0c1.3-1.3,2.7-2.2,4.4-2.9c-1.3,5.8-3.4,10.1-6.2,12.9
	L434,172C435.7,167.6,436.8,164.7,437.1,163.2L437.1,163.2z M430.7,174.1l0.5,0c-0.7,1.3-1.3,2-1.8,2.1l-0.1-1.4
	C429.6,174.7,430.1,174.5,430.7,174.1z M426.6,183.8c1-4,2-6.2,2.8-6.8l0,0.5c-0.5,3.7-1.3,5.6-2.4,5.8l0.2,2.3
	c-0.9,1.3-1.3,2.2-1.3,2.9l-0.5,0l-0.3-3.2C425.8,185.3,426.3,184.8,426.6,183.8L426.6,183.8z M425.1,189.1c0,0.6-0.3,1.8-1.1,3.8
	l-0.5,0l-0.1-1.4C424.1,190,424.7,189.2,425.1,189.1L425.1,189.1z M395.3,275.4l0-0.4l1-0.1l0.1,1.4
	C395.9,276.4,395.5,276.1,395.3,275.4z M437.8,276.5c0-0.3-0.2-0.5-0.5-0.4l-2.4,0.2l0-0.5h0.2l5.7-0.5l0,0.5
	C439.1,275.9,438.1,276.1,437.8,276.5z M435,275.3c0.2,0.1,0.1,0.2,0,0.3C434.9,275.6,434.7,275.5,435,275.3z M435.3,268.7l-3.2,0.3
	l0-0.5l2.9-0.3l2.5-0.6c0,0.3,0.2,0.4,0.5,0.4c3-0.5,2.7-0.7,4.1-0.8c0.5,0,0.8,0.3,0.8,0.8L435.3,268.7L435.3,268.7z M446.4,267.7
	c-1.8-0.2-1.9-0.3-3.1-0.2l0-0.4l2.8-0.3l0,0.4C445.8,267.3,446.8,267.4,446.4,267.7L446.4,267.7z M446.6,267.2l0-0.4l1.5-0.1l0,0.4
	L446.6,267.2z M450,266.9l0-0.4c0.3,0,0.6-0.2,1.1-0.6c0.8-0.1,1.2,0.4,1.3,1L450,266.9L450,266.9z M454.4,266.4l0-0.5l1.9-0.1
	l0,0.5L454.4,266.4z M457,266.2c0-0.6,0.2-0.9,0.7-1l0.6,0.8c0-0.3,0.1-0.4,0.3-0.4l0.5,0.9L457,266.2L457,266.2z M429.2,278.2
	l-0.1-0.9l-0.3,0l0.1,0.9L429.2,278.2z M493.9,261.4c0.3-0.2,0.4-0.4-0.3-0.5c-0.3,0.4,0.4,0.5-0.4,0.5l0,0.3
	c0.1-0.1,0.3-0.2,0.4-0.3l-0.4,0.3v0l-0.8,1l1.5-0.6h0.2l-0.1-0.9L493.9,261.4z M496.6,263.5l-0.3,0l0.1,0.9l2.2-0.2
	C498.5,263.7,497.1,263.5,496.6,263.5L496.6,263.5z M493.2,261.9L493.2,261.9L493.2,261.9C493.3,261.8,493.2,261.8,493.2,261.9
	L493.2,261.9z"/>
<path class="st0" d="M353.5,196.6l0,0.6l1.2-0.1c0-0.4,0.1-1,0.4-1.7l-0.1-1.1C354.5,194.4,354,195.2,353.5,196.6L353.5,196.6z
	 M341.8,168.6l-0.1-1.1l-1.7,0.1l0.1,1.1L341.8,168.6z M308.1,231.9c-0.1-1-3.2-4.9-9.3-11.7c-0.1-1.3,2-3.1,6.3-5.6l12.3-10.7
	c2.8-3.5,4.4-9.2,4.9-17.1l-0.1-1.8c-0.5-5.5-4.4-9.8-11.9-13.2c-4.4-3-12.4-4.6-23.9-4.9c-9.5,0.8-21.9,4.2-37.2,10.2
	c-4.2,3-9,6-14.4,9.1l0.1,0.9c0.3,0,0.8-0.2,1.4-0.6c0.6-0.1,1,0.2,1,0.8l0.9-0.5l0.4,0l0,0.4c0,0.5-3.3,3.1-10,7.8l0.5,1l-0.4,0
	l-1.1-0.4c0,0.3-0.4,0.6-1.4,0.6l0,0.4l1.1,1.3c-0.3,0-0.8-0.1-1.5-0.4c-1.5,0.1-3.1,1-4.6,2.5l0.6-2.7c2.2-9.7,3.8-18.3,4.6-25.7
	l-0.1-0.5c-1.5-1-3.1-2.4-4.5-4.2c0-1.1,0-1.8,0-2l-0.1-0.4l-0.4,0.1c-4.9,7.3-14.2,19.7-28.1,37.4c-10.6,12.5-16,19.5-16.4,20.9
	c-4.3,4.5-6.4,7.1-6.2,8.1c-1.1,0.7-1.6,1.5-1.4,2.3c-0.3,0.1-0.6,0-0.6-0.4c-1.8,3-4.6,4.9-8.2,5.7l-3.8,0.9
	c-0.5,0.1-0.8,0.5-0.7,1.1l0.1,0.5l1.4-0.3l0.1,0.4l-3.2,1.3l-5.7,1.3l-3,0.2c-0.4,0.4,2.4,0,1.3,0.2l-3.8,0.9
	c-2.3,0.5-3.5,0.3-3.8-0.6l-0.4,0.1c0.1,0.4,0.1,0.7,0,1l-0.2-0.9l-3,0.7c-0.2-1.4-4.3-6.5-12.2-15.2c-0.1-1.7,2.7-4.2,8.4-7.4
	l16.1-14.2c3.6-4.6,5.7-12.1,6.4-22.3l-0.2-2.4c-0.6-7.2-5.9-13-15.7-17.5c-5.8-3.9-16.3-6-31.4-6.4c-12.5,1.1-28.9,5.5-49,13.3
	c-5.5,4-11.8,8-18.9,11.9l0.1,1.3c0.5,0,1.1-0.3,1.9-0.7c0.8-0.1,1.3,0.3,1.3,1l1.3-0.7l0.6,0l0,0.6c0,0.6-4.3,4-13.2,10.3l0.7,1.1
	l-0.6,0l-1.4-0.5c0,0.4-0.6,0.6-1.9,0.7l0.1,0.7l1.5,1.6c-0.5,0-1.1-0.1-2-0.4c-2.9,0.3-5.7,2.3-8.4,6.2l0.7,1.1
	c2.4-2.2,3.8-3.3,4.2-3.4l0.1,1.8c-0.4,0-1,0.3-1.9,0.7l1.5,2.3c2.9-3.1,6.1-5.8,9.6-8.1c1.7,0.4,2.7,1,2.7,1.6l1.3-0.1
	c9.5-7,18.9-12.1,28.2-15.2l0.1,1.3c-1.7,2.6-2.9,3.9-3.5,4c0.1,0.9,0.4,1.7,0.9,2.3c0.1,1.6-4.1,12.3-12.7,32
	c-19.5,45.9-35.8,79.9-49.1,101.8c0,0.4,0.3,1,0.8,1.8c3.3-0.8,5.3-1.6,6.2-2.4l0.7-0.1l0.1,1.3l1.2-0.1l1.3-0.7
	c0,0.4,0.4,0.6,1.3,0.5l0.1,1.3c0.1,1.2-0.6,3.1-2.1,5.6c-1.3,1.5-2.8,4.7-4.3,9.5l0,0.6l1.2-0.1c5.3-5.9,9.3-11.8,12.1-17.4
	c15.5-4.5,27.3-9,35.4-13.4c8.2-0.7,14.5-2.9,18.7-6.4l-0.1-0.7l-3.1,0.9l-0.7,0.1l-0.1-0.7c6-0.9,10.2-2.2,12.5-4.1
	c11.7-9.1,20.6-15.5,26.6-19.3c12.3-9.1,20.4-17.9,24-26.5c0.7-0.1,1.3-0.3,2.1-0.5c1.7-0.1,2.7-0.1,2.9-0.2
	c-0.1-0.3,0.1-0.5,0.4-0.6c2.8-0.3,1.4,0.2,3.2-0.2l4.6-1.1l0.8-0.2l-0.4,0.2c0.5,0.1,1.1,0,1.7-0.1l0.3,1.4l-21.1,33.6l-4.7,5.9
	l-2.3,7.7l0.4-0.1l2.3-1l-0.7,3l0.2,0.9l0.6,0.8c-0.3,0.1-0.4,0.3-0.3,0.6l0.1,0.5l1-0.2c1.4-1.2,2-2.3,1.8-3.3
	c1.5,0.3,2.5,0.4,3,0.2l0.1,0.5c-0.9,0.2-1.4,1-1.5,2.2l0.1,0.5l0.5-0.1c7.7-8.4,26.4-37,41.5-56.4c-0.5-2.1,7.4-5,23.6-8.8l0.5-0.1
	c0.6,2.5-0.7,8.7-3.8,18.5c-2,5.9-2.9,9.1-2.8,9.7c-2.6,7.8-3.8,12.1-3.6,12.7l-5.7,18.8c-3.7,9.7-6.6,19.8-8.5,30.5
	c0.3-0.1,0.8,0,1.6,0.1l0.8-0.7c0.1,0.3,0.3,0.4,0.6,0.4l-0.3-1.4l2.5-0.1c0.7-0.2,1.4-1.1,1.9-2.8c-0.1-2.5,0.4-3.9,1.5-4.2
	c1.5-6,2.5-9.1,2.8-9.2c1.4-6,2.5-9.4,3.2-10.3c2.2-7.8,3.8-11.8,4.8-12.1l0.2,1l-1.6,4.1c-2.8,12.3-5.6,22-8.4,29.1l0.8,3.5
	l0.5-0.1c6.9-14.7,16.7-43.9,29.6-87.5c0.4-3.8,2.2-6.8,5.5-8.9l-0.7-0.8l-0.1-0.4c1.5-0.3,2.5-0.9,3.1-1.7
	c-0.1-0.3-1.4-0.8-3.9-1.5l6.4-27.5c1.4-1.3,2.2-1.9,2.5-1.9l0.1,1.4c-0.3,0-0.8,0.2-1.4,0.6l1.2,1.7c2.2-2.4,4.6-4.5,7.2-6.2
	c1.3,0.4,2,0.8,2.1,1.3l1-0.1c7.3-5.3,14.4-9.2,21.5-11.5l0.1,0.9c-1.3,2-2.2,2.9-2.7,3c0.1,0.7,0.3,1.3,0.6,1.8
	c0.1,1.2-3.1,9.3-9.5,24.3c-14.8,34.8-27.2,60.6-37.3,77.3c0,0.3,0.3,0.8,0.7,1.4c2.5-0.6,4.1-1.2,4.7-1.8l0.4,0l0.1,0.9l1-0.1
	l0.9-0.5c0,0.3,0.4,0.4,1,0.3l0.1,1c0.1,0.9-0.4,2.3-1.6,4.2c-1.1,1.1-2.2,3.5-3.4,7.2l0,0.5l1-0.1c4-4.5,7.1-8.9,9.2-13.3
	c11.8-3.5,20.7-6.8,26.9-10.1c6.3-0.6,11.1-2.2,14.3-4.9l0-0.5l-2.4,0.7l-0.5,0l0-0.5c4.6-0.7,7.8-1.7,9.5-3.1
	c8.9-6.9,15.7-11.8,20.2-14.6C302.3,251.4,308.9,241.4,308.1,231.9L308.1,231.9z M305.6,232.5l0.3,3.7c-0.4,0.9-0.9,1.4-1.4,1.4
	l-0.6-6.3C305.1,231.7,305.6,232.1,305.6,232.5L305.6,232.5z M26.7,202.5l-0.6,0l-0.1-1.1l2.5-0.2l0,0.6
	C28.2,201.8,27.5,202.1,26.7,202.5L26.7,202.5z M14.3,326.7c-1.5-0.7-2.8-0.9-3.9-0.8l-0.1-1.8c-0.1-0.7,0.3-1.2,1.2-1.4
	c0.8-0.1,1.3,0.5,1.4,1.7c2.1-2.6,3.3-3.9,3.5-4l1.4,0.6C17.3,324.7,16.1,326.6,14.3,326.7z M147,188c-0.6,0.1-1.9-1.9-3.7-5.7
	l-0.1-1.1c1.2-0.1,2.4,1.8,3.7,5.7L147,188z M145.2,174.2l-0.5,1.2l-18-7.5C138.7,168.3,144.9,170.4,145.2,174.2z M69.1,239.5
	l-2.5,0.2l-0.1-1.1l2.5-0.2L69.1,239.5z M67.1,200.3l0.6,0l0.1,1.8c-0.6,0-1.4,0.9-2.3,2.6l-0.1-1.3C66.5,202.1,67.1,201,67.1,200.3
	L67.1,200.3z M61.7,212.9l0.2,2.4l-0.6,0l-0.2-2.4L61.7,212.9z M58.9,217.4l1.2-0.1c-0.1,2-0.7,3.1-1.7,3.1l-0.6,0
	C58.6,219.1,59,218.1,58.9,217.4z M56.8,223.6l0.7-0.1l0,0.6l-1.1,1.9l-1.2,0.1l0-0.6C56.4,225.5,56.9,224.9,56.8,223.6L56.8,223.6z
	 M54.8,229.3l-0.4,3l-0.6,0l-0.3-3L54.8,229.3z M34.1,288c-0.8,4.1-1.7,6.2-2.6,6.3l0-0.6C31.2,291.7,32.1,289.8,34.1,288L34.1,288z
	 M30.3,296.2l0,0.6c0.1,0.8-0.3,1.3-1.1,1.3l0-0.6C29.1,296.9,29.5,296.4,30.3,296.2z M29.2,313.3l1.9-0.2l0.1,0.7
	c-0.5,0-1.1,0.3-1.9,0.7l-1.2,0.1C28,314,28.4,313.5,29.2,313.3L29.2,313.3z M83.7,296.5c-10.8,5.3-17.1,8.9-19,10.8
	c-11.6,4.1-17.4,6.6-17.3,7.6c-10.4,4.1-17.2,7.1-20.4,9c-0.8,0.1-1.9-0.2-3.4-0.9c-0.2-2.1,0.8-3.8,2.8-5.2
	c1.8-0.1,3.5,0.1,5.2,0.8c1.9-1,5.3-2.1,10-3.3l-0.1-1.3l-3.8,0.3c0.5-0.7,4.2-2.4,11.1-5.2l1.9-0.2l0,0.6c-3.3,0.3-5.1,1.3-5.5,3
	c0.1,0.8,0.5,1.1,1.3,1c2.5-1.5,3.7-2.5,3.6-2.7c4.7-0.9,17.6-7.7,38.8-20.3l0.1,1.1C89.2,292.3,87.4,293.8,83.7,296.5z M51.2,307.2
	c3.1-0.3,5.7-1.5,8-3.7c0.9-0.1,1.4,0.3,1.4,1c-1.5,0.1-4.4,1.4-8.7,3.8l-0.6,0L51.2,307.2L51.2,307.2z M103.6,266.9l-16.2,12.9
	c-12.1,7.9-18.6,11.9-19.5,12c-19.2,10.6-31.2,16.1-35.8,16.5l-0.7,0.1c0.6-2.2,9.1-19.7,25.7-52.6c7.3-0.6,18.8-4,34.4-10.2
	l3.8-0.3c7.9-0.7,13.9,0.8,17.8,4.5l0.2,2.4C110.4,260.5,107.1,265.5,103.6,266.9L103.6,266.9z M71.9,249l2.6-0.2l0,0.6l-2.6,0.2
	L71.9,249z M108.6,242.8l1.9-0.2c1.8,0.8,2.7,1.6,2.8,2.2l0,0.6C111.6,245.6,110,244.7,108.6,242.8z M113.8,213.2
	c-1.7,2-6.3,5.5-13.9,10.4c-2.5,0.2-11.8,3.8-28,10.9c-0.8-0.4-1.7-0.5-2.6-0.4l-0.1-1.1c-0.2-2.3,0.8-5.2,3.1-8.8
	c1.3-6.6,2.6-10.4,4.1-11.3l13.4-30.2c-0.1-1.9,2.7-3.3,8.6-4.3l1.9-0.2l0.1,1.7c5.8-0.9,9.4-1.4,10.8-1.5
	c10.7-0.9,16.2,1.3,16.7,6.4l1.2-0.1l-0.3-3.1l1.3-0.1c3.1,1.7,4.8,3.8,5,6.3c0.1,1.7-0.8,3.8-2.7,6.3c-0.8,0.1-1.3-0.5-1.4-1.7
	l-1.3,0.1l-0.3,3.7c-5.4,8.1-9.4,12.3-11.8,12.5C115.7,211.7,114.4,213.2,113.8,213.2L113.8,213.2z M122.1,234.4
	c-1.1-0.7-2-1.1-2.7-1l-0.1-1.8l1.2-0.1l2.7,1.6C123.3,233.9,122.9,234.3,122.1,234.4L122.1,234.4z M130.6,244.5
	c1.2,0.5,1.9,1,2,1.5l-0.6,0.1l0,0c-0.1,0-0.3,0-0.4,0.1l-0.9,0.7L130.6,244.5L130.6,244.5z M131.4,249.6l-0.1-0.5l1.5-0.4l0.1,0.5
	L131.4,249.6L131.4,249.6z M135.1,253.8c1.6-0.3,2.4-0.4,5.3-1l0.1,0.5l-5.6,1.3C135,254.3,135.1,254,135.1,253.8L135.1,253.8z
	 M140.6,256.1c-2.4,0.2-1.8-0.1-5.6,0.8l-0.1-0.5l4.7-1.5l2.2-0.5l0.2,0.9C141,255.5,141.8,255.5,140.6,256.1z M145.6,254.9
	c-0.6,0.1-1-0.1-1.3-0.7l1.4-0.3c0.6-0.1,1,0.1,1.2,0.7L145.6,254.9L145.6,254.9z M159,240.4l-0.1-0.5l2.3-0.6l0.2,0.9L159,240.4z
	 M173.4,328.7c0.1-0.7,0.2-1.1,0.1-1.5l0.5-0.1c0.6-0.1,1,0.1,1.1,0.7l0.1,0.5L173.4,328.7L173.4,328.7z M183.5,244.2l-1-0.2
	c-1.7,0.7-3.1,1.1-4.2,1.4l-1,0.2c-0.6,0.1-1-0.1-1.2-0.7l6.7-1.5l2.2-1l0.7,0.8C184.7,243.5,184,243.8,183.5,244.2L183.5,244.2z
	 M188.7,242.5l-0.1-0.5c0.3-0.1,0.8-0.3,1.3-0.8l4.8-1.1l0.1,0.5C192.2,241.3,190.2,241.9,188.7,242.5z M189.5,232.9
	c-0.3,0.1-0.8,0.4-1.3,0.8c-0.1-0.3-0.7-0.3-2,0c-0.2-0.9,3.3-2.2,10.6-3.9l1-0.2l0.2,0.9C192.9,231.9,190,232.7,189.5,232.9
	L189.5,232.9z M202.4,218.9c-0.5,5.9-2.6,9.2-6.2,10l-0.1-0.5l-3.2,1.3l-1.4,0.3c-0.7,0.2-1.4,0.1-2,0l-0.3-1.3
	c-0.1-0.5,4.6-7,14.1-19.4l1.1,0.2C204.6,211.2,204,214.3,202.4,218.9L202.4,218.9z M225.2,199.4l-0.4,0l-0.1-0.9l1.9-0.2l0,0.5
	C226.3,198.9,225.8,199.1,225.2,199.4z M215.8,293.7c-1.1-0.5-2.1-0.7-2.9-0.7l-0.1-1.4c0-0.5,0.3-0.8,0.9-1c0.6-0.1,1,0.4,1.1,1.3
	c1.6-2,2.5-3.1,2.7-3.1l1,0.4C217.9,292.2,217.1,293.6,215.8,293.7z M316.5,188.4c-0.5,0-1.4-1.4-2.8-4.4l-0.1-0.9
	c0.9-0.1,1.9,1.4,2.8,4.3L316.5,188.4L316.5,188.4z M315.1,177.9l-0.4,1l-13.6-5.7C310.2,173.4,314.9,175,315.1,177.9z M257.3,227.5
	l-1.9,0.2l-0.1-0.9l1.9-0.2L257.3,227.5z M255.8,197.7l0.5,0l0.1,1.4c-0.5,0-1.1,0.7-1.8,2l-0.1-0.9
	C255.4,199,255.8,198.2,255.8,197.7L255.8,197.7z M251.7,207.3l0.1,1.8l-0.5,0l-0.1-1.8L251.7,207.3z M249.6,210.7l1-0.1
	c-0.1,1.5-0.5,2.4-1.2,2.4l-0.5,0C249.4,212,249.6,211.2,249.6,210.7L249.6,210.7z M248,215.4l0.4,0l0,0.5l-0.8,1.5l-1,0.1l0-0.5
	C247.7,216.8,248.1,216.3,248,215.4L248,215.4z M246.5,219.7l-0.3,2.4l-0.4,0l-0.2-2.3L246.5,219.7L246.5,219.7z M230.8,264.3
	c-0.6,3.1-1.3,4.7-2,4.8l0-0.4C228.6,267.1,229.3,265.7,230.8,264.3L230.8,264.3z M227.8,270.6l0,0.4c0.1,0.7-0.2,1-0.9,1.1l0-0.5
	C226.9,271.1,227.2,270.8,227.8,270.6L227.8,270.6z M227,283.5l1.5-0.1l0,0.5c-0.3,0-0.8,0.2-1.4,0.6l-1,0.1
	C226.1,284,226.4,283.7,227,283.5L227,283.5z M268.4,270.8c-8.1,4-12.9,6.7-14.4,8.1c-8.8,3.1-13.2,5-13.1,5.8
	c-7.8,3.1-13,5.4-15.4,6.8c-0.6,0-1.4-0.2-2.5-0.7c-0.1-1.6,0.6-2.9,2.1-3.8c1.4-0.1,2.7,0.1,3.9,0.6c1.5-0.7,4-1.5,7.6-2.5
	l-0.1-0.9l-3,0.3c0.4-0.5,3.2-1.8,8.5-4l1.5-0.1l0,0.4c-2.5,0.2-3.9,1-4.2,2.3c0,0.6,0.4,0.9,1,0.8c1.8-1.2,2.7-1.9,2.7-2.1
	c3.5-0.6,13.3-5.8,29.4-15.4l0.1,0.9C272.5,267.6,271.2,268.7,268.4,270.8L268.4,270.8z M243.7,278.9c2.4-0.2,4.4-1.1,6.1-2.8
	c0.6,0,1,0.2,1,0.8c-1.1,0.1-3.3,1-6.6,2.8l-0.5,0L243.7,278.9L243.7,278.9z M283.6,248.3l-12.3,9.9c-9.2,6-14.1,9-14.9,9.1
	c-14.6,8-23.6,12.2-27.2,12.5l-0.5,0c0.4-1.7,7-15,19.6-39.9c5.5-0.5,14.2-3.1,26.1-7.8l3-0.3c6-0.5,10.5,0.7,13.4,3.5l0.1,1.8
	C288.7,243.4,286.2,247.1,283.6,248.3L283.6,248.3z M259.5,234.7l1.9-0.2l0,0.5l-1.9,0.2L259.5,234.7z M287.4,229.9l1.5-0.1
	c1.4,0.7,2.1,1.3,2.1,1.7l0,0.4C289.7,232.1,288.5,231.4,287.4,229.9z M291.2,207.5c-1.3,1.5-4.8,4.2-10.5,7.9
	c-1.9,0.2-9,2.9-21.2,8.2c-0.6-0.2-1.3-0.3-2-0.3l-0.1-0.9c-0.1-1.8,0.6-4,2.3-6.7c1-5.1,2-7.9,3.1-8.6l10.3-23
	c-0.1-1.4,2.1-2.5,6.5-3.3l1.5-0.1l0.1,1.4c4.3-0.7,7.1-1.1,8.2-1.2c8.1-0.7,12.3,0.9,12.7,4.9l1-0.1l-0.2-2.2l1-0.1
	c2.4,1.3,3.6,2.8,3.8,4.7c0.1,1.3-0.6,2.9-2,4.8c-0.6,0.1-1-0.4-1.1-1.3l-1,0.1l-0.3,2.8c-4.1,6.2-7.1,9.4-9,9.6
	C292.7,206.3,291.7,207.5,291.2,207.5L291.2,207.5z M295.5,222.8l-0.1-1.4l1-0.1l2.1,1.3c0,0.6-0.3,0.9-0.9,1
	C296.7,223.1,296,222.8,295.5,222.8L295.5,222.8z M124.1,312.3l-1,0.2l-0.8,0.7c0.1,0.6,0.5,0.8,1.1,0.7c0.6-0.1,0.9-0.5,0.7-1.1
	L124.1,312.3L124.1,312.3z M120.4,305.1l0.1,0.5c0.6-0.1,0.9-0.5,0.7-1.1l-0.1-0.5C120.6,304.1,120.3,304.5,120.4,305.1L120.4,305.1
	z M146.5,256.1l0.7-0.4c-0.1,0-0.3,0-0.4-0.1C146.6,255.6,146.5,255.8,146.5,256.1z M146.4,243.4l1.1-0.3l-0.2-1l-1.1,0.3
	L146.4,243.4z M406.7,280.6l-2.5-0.3l-0.4,1l0,0.5l14.9-1.3l-0.1-0.9L406.7,280.6z M420.3,279.4l0.1,0.9h0.1l-0.1-0.9H420.3z
	 M482.9,271.2l0.1,0.9l1.6,0.3l-0.1-0.9L482.9,271.2z M480.6,271.4c-11.2,2.5-12.6,2.1-15,2.2l0.1,0.9l1-0.1l0.6,0l-0.1-0.1l1.2-0.5
	c11.1-1.2,12.4-0.8,12.3-2L480.6,271.4z M413.4,255.1l-1-0.3c-0.8,2.2-1.2,3.5-1.2,3.8l0,0.4C412,259,412.7,257.7,413.4,255.1z
	 M399.9,247.9l0-0.5l-0.5,0l-0.9,0.6l0.5,0.9C399.6,248.8,400,248.5,399.9,247.9L399.9,247.9z M429.2,278.2l-0.1-0.9l-0.3,0l0.1,0.9
	L429.2,278.2L429.2,278.2z M490,264.5l0.7-0.1c0.4,0,0.6-0.4,0.6-1l-0.4-0.9c-2.5,0.2-3.7,0.3-5.8,1.5l0-0.5l-3.1,0.3
	c-0.1-0.9-0.3-1.4-0.7-1.4l-1.6,0.1c-1.8,0.1-2.7,0.1-3.6,0.8c0-0.3-0.1-0.5-0.3-0.5l-1.8,0.1l-1,0.6c0-0.3-0.1-0.5-0.3-0.5
	l-0.6,0.6l0-0.5l-2.5-0.2l-0.6,0l0.1,0.9l1.3,0.3l1.2-0.1c0.4,0.3,0.8,0.3,1.4,0.3l1-0.5l0,0.4c-5.8,1.4-5.7,1.2-9.7,1.8
	c-0.4-0.3-0.8-0.4-1-0.4l-0.1,0.1c-0.4,0-0.7-0.3-0.7-0.8l2.1-0.3c0.1,0,0.3,0.1,1.4,0.4c1.7-0.8,1.7-1.1,2.6-1.2l-0.1-0.9
	c-5.7,1.1-3.4,0.4-10.5,1l-0.3,0l-0.1-0.9c9.1-1.1,6.1-0.5,9.2-1.4c0,0.3,0.1,0.5,0.3,0.5c0.3-0.3,0.8-0.6,1.3-0.6l0.6,0
	c3.2-0.3,4.3,0.4,10.6-1.4l0,0.4l1-0.5l1-0.1c-0.1-0.9,1.3-1.1,1.8-1.1l-0.1-1c-11.1,2.2-14,1.6-17.1,2.5l0-0.4
	c-2.9,0.5-3,0.3-3.8,0.3c-0.2,0-0.6,0.2-0.9,0.6c0-0.3-0.1-0.5-0.4-0.5c-0.1,0-0.1,0-0.2,0l-9.4,1.5c0-0.3-0.1-0.4-0.4-0.4
	c-4.9,1-3.6,1.2-10.1,1.8c-0.3,0-0.7,0.2-1.2,0.5c0-0.3-0.2-0.4-0.5-0.4l-4,0.3l-2.7,0.7c0-0.3-0.2-0.4-0.5-0.4
	c-1.5,0.4-2.8,0.7-3.9,0.7h-0.1c-0.7,0.1,0.3-0.2-0.2-0.4l-0.8,0.5c-1.2,0.1-0.6-0.1-4.6,0c-7.1,0.9-6.3,1-7.1,1l-2.7-0.2
	c0,0.3-0.1,0.4-0.4,0.4c-3-0.4-4.6-0.9-4.6-1.4c0.4-2.9,1.1-4.3,2.1-4.4l0.5,0l-0.4,1l0.5,0c1-0.5,1.4-1,1.4-1.4l-0.1-1l-1,0.1
	l-0.1-0.9c-0.1-0.7,0-1.3,0.3-1.8l2.2-3.5l0.1,0.9l1-0.1l-0.1-0.9l-0.6-0.8c0.8-0.7,1.4-1,1.8-1.1l0-0.5l-1.4,0.1l-0.1-1.4
	c2.8-5.8,4.1-9.2,4.1-10.2l1,0.4c0.6,0,0.9-0.4,0.9-1.1l-1,0.1l0-0.4c-0.1-0.7,0.1-1.4,0.4-2c1.5-1.6,2.2-3.2,2.1-4.8
	c0.3,0,0.4,0.1,0.5,0.4c1.3-0.7,2.3-2.7,3-5.9c2.3-4.1,5.5-12.4,9.8-24.7c8.1-21.8,7.8-24.1,8.9-29.3l-1,0.1
	c0.1,0.7-0.1,1.3-0.4,1.9c-0.7-0.3-1.2-0.4-1.5-0.4l0-0.4c-0.1-1.9,0.6-4.1,2.4-6.8l0.4,0l0.8,3.2l1-0.1c0-0.2,0.2-1.5,0.7-3.8
	c0-0.5-0.4-0.8-1.1-0.8l-0.9,0.6c-0.1-0.7,0-2.4,0.1-5.2l-0.5,0c-0.8-0.8-1.2-1.5-1.3-2l-5.3,0.5c0-0.4-0.2-0.9-0.6-1.6
	c0-0.5,1.1-1,3.6-1.4l1.1,0.4l1-0.6c0,0.3,0.2,0.5,0.6,0.4l1-0.6c0,0.3,0.2,0.5,0.6,0.4l0.5,0l-0.1-1.1c-0.7,0.1-2.7,0.1-5.8,0
	l-1,0.7l0-0.6c-24.7,2-38.8,3.2-42.1,3.5c-0.4,0-2.2,0-5.2-0.1c0,0.4-0.3,0.6-1.1,0.7l-1.1-0.5l-3.6,0.9c-0.8,0.1-2.3,0-4.3-0.2
	c-0.6,0.4-1.2,0.7-2,0.8c-0.4,0,5.3-0.3,10.6-0.7c-0.6,0.4-1.4,0.7-2.6,0.8c-0.8,0.1-1.5,0-2.1-0.4c-0.8,0.4-3.4,1-7.8,1.8l-1.1-0.4
	l-17.2,2.7c-0.7-0.3-1.4-0.4-2.3-0.4c-0.9,0.1-2.5,0.4-4.6,1l-8.3,3.5l0.6,1c0.4,0,1-0.3,1.7-0.7l2.9,0.3l-0.4,2.8
	c-2.7,1.2-4.3,3-4.8,5.3c-4.1,1.8-6.1,3.1-6.1,3.9l0,0.5l0.6,0l1.1-0.6l1.3,1.5l0.2,2.1c0.1,0.7-6.8,15.1-20.6,43.4
	c-11.9,27.3-18.2,42.2-18.8,44.9c-4.1,1.1-6.4,2.8-7.1,5c0.1,0.7,1.3,1.2,3.6,1.4l0.1,1.1l-1.1,1.8l0.2,2.1c0.1,1.1,3.1,2,9,2.5
	c0-0.4,0.1-0.6,0.6-0.6c0.1,1.3-0.3,3.9-1.1,7.7l0.6,0c2.4-3.3,3.6-5.6,3.5-6.9l0.5,0c0.6,0,1.2,0.6,2,2.1
	c-0.7,0.3-3.3,6.2-7.7,17.6l0.6,1l0.6,0c5.4-13.7,8.8-21.3,10.2-22.7c7.1-0.6,19.4-1.9,36.9-3.8l1.1-0.7c0,0.4,0.3,0.6,0.7,0.5
	l1.1-0.1l1.1-0.7c0,0.4,0.3,0.6,0.7,0.5l13.2-1.1c3.5-0.3,5.2-1.4,5-3.2c0-0.5,2-1,6.2-1.6c0.4,0,1,0.1,1.8,0.3c0-0.3,2.1-0.7,6.3-1
	c0.1-2.2,0.8-3.4,2.1-3.5l-0.1-1.1c-1.2,0.1-2.5,0.4-4.1,0.9c-2.8-0.1-4.5-0.4-5.3-0.6c-0.7,0.4-1.3,0.6-1.7,0.7l-9.2,0.3l-1.1,0.6
	c0-0.3-0.3-0.5-0.7-0.4l-0.5,0l-1.2,0.6c0-0.3-1-0.6-2.9-0.8l-1.2,0.7l-2.3,0.2l0-0.6c11.9-1.3,17.7-2.9,17.6-4.8
	c0.8-0.1,1.2,0.3,1.3,1.1l3.5-0.9l-0.1-1.1l-28.4,0.8c0,0.4-0.1,0.6-0.6,0.6l-3.5-0.3c-0.9,0.1-1.6,0.3-2.2,0.8l-1.3-0.5
	c-3.6,0.3-6.2,0.7-8,1.3c-2.4-0.2-5.1-0.1-8.1,0.1l-6.4,0.6l-2.9-0.3c-0.1-1.9,3.5-11.1,11-27.7c2.2-5.6,4.2-9.1,6.1-10.4
	c0.4,0,1,0.1,1.8,0.4l4.5-1.5l2.3,0.4c3.9-0.3,8.4-1.4,13.6-3.4c1.3-0.1,2.2,0,2.9,0.3l3.5-0.8l10.3-0.9c4.4-0.4,9.1-1.3,14.3-2.9
	l-0.1-1.1c-1.9,0.2-2.9-0.1-3-0.9c-0.1-1.4-1.5-2-4.2-1.8l-0.1-1.1l2.8-0.8l7.4-0.6l-0.1-1.1c-0.3,0-1.8,0-4.6-0.1l-0.1-1.1l2.9-0.3
	c0.8-0.1,1.1-0.4,1-1.2c-3.9,0.1-5.8-0.1-5.9-0.6c-27,1.3-40.5,1.6-40.6,0.7c-0.4,0-1,0.3-1.7,0.7l-0.7-1.1
	c7.1-15.2,11.3-22.8,12.6-22.9c0,0.6-0.3,1.5-0.9,2.8l0,0.5l1.1-0.1c2.8-6.8,5.2-10.3,7.2-10.4c8.5-0.7-1.2-1.3,16.9-4.1
	c0.7,0.3,1.3,0.5,1.6,0.4c7.1-1.4,17-2.9,29.7-4.5l-0.1-1.1l-6.8,0.6l-0.1-1.1c0.8-0.1,1.5-0.3,2-0.8l0,0.6c0.4,0,0.9-0.3,1.5-0.7
	c1.2-0.1,2.1,0,2.7,0.3c2.4-0.6,4.3-1,5.7-1.1l4.2-0.4c1-0.7,1.5-1.3,1.5-1.8l0-0.5c-1.1,0.1-2.3,0-3.7-0.2c0-0.6,0.3-1,1-1.2
	l7.9-0.7l3.6-0.9c0,0.4,0.2,0.6,0.5,0.6c0.4,0,0.9-0.3,1.5-0.7c0.2,0,0.4,0,0.6,0.1c-0.5,1-1,2.4-1.6,4.3l-1,0.1
	c-0.1-0.7-0.3-1.3-0.6-1.9l-0.5,0c-9.6,26.7-13.9,39.1-22.7,59.6c-1.6,5.2-3,8.1-4.2,8.8c0,0.6,0.4,0.9,1,0.8
	c0.2,2.6-0.4,5.1-1.8,7.6c-4.1,11.8-6.8,18.2-8.2,19.4l0.9,5.6c0,0.6-0.3,0.9-0.9,1l-1,0.1c-0.1-1.5-0.7-2.3-1.7-2.2l-0.5,0
	c-1.3,2-2.2,4.2-2.8,6.8l1-0.1c1.3-0.8,1.9-1.8,1.8-3l1.9-0.2l1.1,0.4c-0.9,1.4-1.3,2.5-1.2,3.4l0.5,0.9l-1.3,2.9l0,0.5
	c1.1-0.1,2.3,0.3,3.6,1c0.9-0.1,1.8-0.5,2.9-1.2c1.1-0.1,5.2-0.1,12.3-0.1l3.6-1.2c4.3,0,5,0.1,8.8-0.3l1.5-0.1l0.8-0.6l0,0.5
	c3.9-0.3,4.2-0.1,7.3,0.3l0,0.5l-2.2,0.2l0.1,0.9c0.7-0.1,1.3-0.3,1.7-0.7c0.6,0,0.9,0.3,0.9,0.9c-0.9,0.1-1.9,0.3-3,0.7l-1-0.3
	c-1.5,0.4-1.2,0.5-2.2,0.6l-1.5-0.3c0,0.3-0.1,0.4-0.4,0.4c0,0.6,0.4,0.9,0.9,0.8l1.5-0.1l8.1-0.7l3.1-0.7c0,0.3,0.1,0.4,0.4,0.4
	l1.5-0.6l2.8-0.2c2.1-0.2,2.1-0.3,6.7-1.1c0-0.3,0.1-0.4,0.3-0.4l0,0.4c7.6-1.3,8-1.4,9.2-1.8l0.1,0.2c1.9-0.4,0.8-0.3,1.3-0.7
	c0,0.3,0.1,0.5,0.3,0.5l1.3-0.1l-0.1-1l-2.7,0l0-0.1c-0.1,0-0.2,0-0.3,0.1h-0.4v0.1c-1.8,0.4-1.8,0.1-3,0.2l-6.7,0.4l0-0.5l3.8-0.5
	l1.4-0.1l0.8-0.6l0,0.5c5.3-0.4,7.2,0.9,31.7-4.3c1.3-0.1,1.2-1.2,2.1-3.5c-0.4,0-0.9-0.1-1.3-0.3c-2,0.8-3.1,0.4-7,1
	c-0.3,0-0.6-0.3-0.7-0.8l0-0.4l3.8,0.1c0.7-0.1,2.1-0.2,4.1-1.3C490.3,264.3,489.5,264.5,490,264.5L490,264.5L490,264.5z
	 M308.6,267.4l-1.7,0.1c-0.1-0.7,0.8-3.4,2.8-7.9l1.1-0.1C310.8,260.6,310.1,263.2,308.6,267.4z M310.7,259l0-0.5
	c0-0.6,0.3-1,1.1-1.2l0,0.5C311.9,258.5,311.5,258.9,310.7,259z M333.7,276.8l0,0.5l-2.9,0.3l0-0.5L333.7,276.8z M330.2,276.5
	c0,0.6-0.8,1.3-2.8,1.9l-3.5-0.3l-1.1,0.1l-0.1-1.1L330.2,276.5z M353.5,169.3l-1.7,0.1l0-0.6c0-0.6,0.3-1,1-1.2l0.6,0l1.2,0.5
	C354.6,168.8,354.3,169.2,353.5,169.3z M379.9,164.2l0.6,0l0.1,1.1l-1.6,0.1C378.9,164.7,379.2,164.3,379.9,164.2L379.9,164.2z
	 M373.2,166.5l-2.6-0.3l0-0.5c3.4-0.3,4.6-0.7,6.7-1.3c0,0.4,0.4,0.6,1.1,0.5l0.1,1.1l-1,0.1c-0.8,0.1-1.5,0-2.1-0.4
	C374.6,166.1,374,166.4,373.2,166.5z M376.5,176l0-0.5l4.2-0.4l0,0.5L376.5,176z M381,172.3l0-0.6l2.1-0.2l0,0.6L381,172.3z
	 M381.5,165.1l-0.6,0l0.5-1.1l4.7-0.4l0,0.6C385,164.3,383.4,164.6,381.5,165.1z M383.9,175.3l-0.1-1.1l2.1-0.2
	c0.7-0.1,1.1,0.3,1.1,1L383.9,175.3L383.9,175.3z M396.4,158.3l-2.7,0.7l-0.5,0c-1.3,0.1-2.9,0.1-4.8-0.1
	C391.9,158.7,395.2,158.4,396.4,158.3L396.4,158.3z M393.6,170l0,0.5l-3.6,0.3l0-0.5C389.9,170.4,393.6,170,393.6,170z M399.5,172.9
	c0-0.4-0.7-0.7-2.2-0.9l-3.6,1l-2.8,0.1c-0.6-0.4-1-0.7-1-1l3.2,0.2l7.3-1.2l3.7,0.1l0,0.6C402.4,172.1,400.8,172.4,399.5,172.9
	L399.5,172.9z M437.1,163.2c0.4,0,0.7,0,0.8,0c1.3-1.3,2.7-2.2,4.4-2.9c-1.3,5.8-3.4,10.1-6.2,12.9L434,172
	C435.7,167.6,436.8,164.7,437.1,163.2z M430.7,174.1l0.5,0c-0.7,1.3-1.3,2-1.8,2.1l-0.1-1.4C429.6,174.7,430.1,174.5,430.7,174.1
	L430.7,174.1z M426.6,183.8c1-4,2-6.2,2.8-6.8l0,0.5c-0.5,3.7-1.3,5.6-2.4,5.8l0.2,2.3c-0.9,1.3-1.3,2.2-1.3,2.9l-0.5,0l-0.3-3.2
	C425.8,185.3,426.3,184.8,426.6,183.8z M425.1,189.1c0,0.6-0.3,1.8-1.1,3.8l-0.5,0l-0.1-1.4C424.1,190,424.7,189.2,425.1,189.1
	L425.1,189.1L425.1,189.1z M395.3,275.4l0-0.4l1-0.1l0.1,1.4C395.9,276.4,395.5,276.1,395.3,275.4L395.3,275.4z M437.8,276.5
	c0-0.3-0.2-0.5-0.5-0.4l-2.4,0.2l0-0.5h0.2l5.7-0.5l0,0.5C439.1,275.9,438.1,276.1,437.8,276.5z M435,275.3c0.2,0.1,0.1,0.2,0,0.3
	C434.9,275.6,434.7,275.5,435,275.3z M435.3,268.7l-3.2,0.3l0-0.5l2.9-0.3l2.5-0.6c0,0.3,0.2,0.4,0.5,0.4c3-0.5,2.7-0.7,4.1-0.8
	c0.5,0,0.8,0.3,0.8,0.8L435.3,268.7L435.3,268.7z M446.4,267.7c-1.8-0.2-1.9-0.3-3.1-0.2l0-0.4l2.8-0.3l0,0.4
	C445.8,267.3,446.8,267.4,446.4,267.7z M446.6,267.2l0-0.4l1.5-0.1l0,0.4L446.6,267.2z M450,266.9l0-0.4c0.3,0,0.6-0.2,1.1-0.6
	c0.8-0.1,1.2,0.4,1.3,1L450,266.9L450,266.9z M454.4,266.4l0-0.5l1.9-0.1l0,0.5L454.4,266.4z M457,266.2c0-0.6,0.2-0.9,0.7-1
	l0.6,0.8c0-0.3,0.1-0.4,0.3-0.4l0.5,0.9L457,266.2L457,266.2z M493.2,261.9L493.2,261.9L493.2,261.9
	C493.3,261.8,493.2,261.8,493.2,261.9L493.2,261.9z M493.9,261.4c0.3-0.2,0.4-0.4-0.3-0.5c-0.3,0.4,0.4,0.5-0.4,0.5l0,0.3
	c0.1-0.1,0.3-0.2,0.4-0.3l-0.4,0.3v0l-0.8,1l1.5-0.6h0.2l-0.1-0.9L493.9,261.4z M496.6,263.5l-0.3,0l0.1,0.9l2.2-0.2
	C498.5,263.7,497.1,263.5,496.6,263.5z"/>
</svg>
