<?xml version="1.0" encoding="utf-8"?>
<!-- Generator: Adobe Illustrator 22.1.0, SVG Export Plug-In . SVG Version: 6.00 Build 0)  -->
<svg version="1.1" id="Layer_1" xmlns="http://www.w3.org/2000/svg" xmlns:xlink="http://www.w3.org/1999/xlink" x="0px" y="0px"
	 viewBox="0 0 500 500" style="enable-background:new 0 0 500 500;" xml:space="preserve">
<style type="text/css">
	.st0{fill:none;stroke:#FFFFFF;stroke-width:2;stroke-miterlimit:10;}
	.st1{fill:#FFFFFF;}
</style>
<path class="st0" d="M8.5,429.2c0,34.4,27.9,62.3,62.3,62.3h358.4c34.4,0,62.3-27.9,62.3-62.3V70.8c0-34.4-27.9-62.3-62.3-62.3H70.8
	C36.4,8.5,8.5,36.4,8.5,70.8V429.2L8.5,429.2z"/>
<path class="st1" d="M191.8,222.1v-68.4H252c5.7,0,11.3,0.5,16.6,1.4c5.3,1,10,2.7,14.1,5.1c4.1,2.5,7.4,5.9,9.8,10.2
	c2.5,4.4,3.7,10,3.7,16.8c0,12.3-3.7,21.2-11.1,26.6c-7.4,5.5-16.8,8.2-28.3,8.2L191.8,222.1L191.8,222.1z M127.5,103.8v292.4h141.7
	c13.1,0,25.9-1.6,38.3-4.9s23.5-8.3,33.2-15.2c9.7-6.8,17.4-15.6,23.1-26.4s8.6-23.6,8.6-38.3c0-18.3-4.4-33.9-13.3-46.9
	s-22.3-22.1-40.3-27.2c13.1-6.3,23-14.3,29.7-24.2c6.7-9.8,10-22.1,10-36.9c0-13.7-2.3-25.1-6.8-34.4c-4.5-9.3-10.9-16.7-19-22.3
	c-8.2-5.6-18-9.6-29.5-12.1s-24.2-3.7-38.1-3.7L127.5,103.8L127.5,103.8z M191.8,346.3V266h70c13.9,0,25.1,3.2,33.6,9.6
	s12.7,17.1,12.7,32.2c0,7.6-1.3,13.9-3.9,18.8s-6.1,8.8-10.4,11.7c-4.4,2.9-9.4,4.9-15.2,6.1c-5.7,1.2-11.7,1.8-18,1.8L191.8,346.3
	L191.8,346.3z"/>
</svg>
