<?xml version="1.0" encoding="utf-8"?>
<!-- Generator: Adobe Illustrator 22.1.0, SVG Export Plug-In . SVG Version: 6.00 Build 0)  -->
<svg version="1.1" id="Layer_1" xmlns="http://www.w3.org/2000/svg" xmlns:xlink="http://www.w3.org/1999/xlink" x="0px" y="0px"
	 viewBox="0 0 500 500" style="enable-background:new 0 0 500 500;" xml:space="preserve">
<style type="text/css">
	.st0{fill:#0277BD;}
	.st1{fill:#039BE5;}
	.st2{fill:#FFFFFF;}
	.st3{fill:#EEEEEE;}
</style>
<g>
	<path class="st0" d="M473.7,0H26.3l39.5,447.4L250,500l184.2-52.6L473.7,0L473.7,0z"/>
	<path class="st1" d="M250,38.8v419.7l147.4-42.1l32.9-377.6H250z"/>
	<path class="st2" d="M369.7,104.6H250v52.6h64.5l-3.9,52.6H250v52.6h57.9l-3.9,59.2L250,340.1v55.3l103.9-34.2l9.2-151.3l0,0
		L369.7,104.6z"/>
	<path class="st3" d="M250,104.6v52.6H132.9l-3.9-52.6H250z M139.5,209.9l2.6,52.6H250v-52.6H139.5z M194.7,288.8h-52.6l3.9,72.4
		L250,395.4v-55.3l-53.9-18.4L194.7,288.8z"/>
</g>
</svg>
