<?xml version="1.0" encoding="utf-8"?>
<!-- Generator: Adobe Illustrator 22.1.0, SVG Export Plug-In . SVG Version: 6.00 Build 0)  -->
<svg version="1.1" id="Layer_1" xmlns="http://www.w3.org/2000/svg" xmlns:xlink="http://www.w3.org/1999/xlink" x="0px" y="0px"
	 viewBox="0 0 500 500" style="enable-background:new 0 0 500 500;" xml:space="preserve">
<style type="text/css">
	.st0{fill:#30261D;}
	.st1{fill:#F32735;}
</style>
<g>
	<path class="st0" d="M336.7,217.3c3.6,4.6,7.4,11,7.4,20.1c0,22.1-17.3,35.1-42.4,35.1c-6.4,0-12.2-0.8-15.7-1.8l-6.6,10.6
		l19.5,1.2c34.5,2.2,54.8,3.2,54.8,29.7c0,22.9-20.1,35.9-54.8,35.9c-36.1,0-49.8-9.2-49.8-24.9c0-9,4-13.7,11-20.3
		c-6.6-2.8-8.8-7.8-8.8-13.1c0-4.4,2.2-8.4,5.8-12.2c3.6-3.8,7.6-7.6,12.4-12c-9.8-4.8-17.1-15.1-17.1-29.9
		c0-22.9,15.1-38.7,45.6-38.7c8.6,0,13.8,0.8,18.3,2h38.9v16.9L336.7,217.3z M277.7,308.1c-2.6,3.2-5.2,6.6-5.2,10.6
		c0,8,10.2,10.4,24.1,10.4c11.6,0,27.3-0.8,27.3-11.6c0-6.4-7.6-6.8-17.1-7.4L277.7,308.1z M299.7,216.7c-11,0-19.1,5.4-19.1,18.3
		c0,9.8,5.4,16.5,18.5,16.5c11.2,0,18.7-6.6,18.7-16.9C317.8,222.8,311,216.7,299.7,216.7z"/>
	<path class="st0" d="M364.4,300.8v-15.7l10.2-1.4c2.8-0.4,3.2-1,3.2-4v-58.6c0-2.2-0.6-3.6-2.6-4.2l-10.8-3.8l2.2-16.1h41.3v82.7
		c0,3.2,0.2,3.6,3.2,4l10.2,1.4v15.7H364.4z M390.1,181.1c-11.4,0-17.9-6.6-17.9-17.9c0-11.3,6.6-17.5,17.9-17.5
		c11.6,0,18.1,6.2,18.1,17.5C408.2,174.5,401.7,181.1,390.1,181.1z"/>
	<path class="st0" d="M500,293.1c-8.6,4.2-21.1,8-32.5,8c-23.7,0-32.7-9.6-32.7-32.1v-52.2c0-1.2,0-2-1.6-2h-13.9V197
		c17.5-2,24.5-10.8,26.7-32.5h18.9v28.3c0,1.4,0,2,1.6,2h28.1v19.9h-29.7v47.6c0,11.8,2.8,16.3,13.5,16.3c5.6,0,11.4-1.4,16.1-3.2
		L500,293.1z"/>
	<path class="st1" d="M204.7,240.8l-91.1-91.1c-5.2-5.2-13.8-5.2-19,0l-18.9,18.9l24,24c5.6-1.9,12-0.6,16.4,3.8
		c4.5,4.5,5.7,10.9,3.8,16.5l23.1,23.1c5.6-1.9,12.1-0.7,16.5,3.8c6.2,6.2,6.2,16.4,0,22.6c-6.2,6.2-16.4,6.2-22.6,0
		c-4.7-4.7-5.9-11.6-3.5-17.4l-21.6-21.6l0,56.8c1.5,0.8,3,1.8,4.2,3c6.2,6.2,6.2,16.4,0,22.6c-6.2,6.2-16.4,6.2-22.6,0
		c-6.2-6.3-6.2-16.4,0-22.6c1.5-1.5,3.3-2.7,5.2-3.5v-57.3c-1.9-0.8-3.7-1.9-5.2-3.5c-4.7-4.7-5.9-11.7-3.4-17.5l-23.7-23.7
		L3.9,240.4c-5.2,5.3-5.2,13.8,0,19l91.1,91.1c5.2,5.2,13.8,5.2,19,0l90.7-90.7C210,254.5,210,246,204.7,240.8z"/>
</g>
</svg>
