<svg xmlns="http://www.w3.org/2000/svg" xmlns:xlink="http://www.w3.org/1999/xlink" viewBox="0 0 1366.22 718.91"><defs><style>.cls-1{fill:url(#linear-gradient);}</style><linearGradient id="linear-gradient" x1="505.74" y1="776.82" x2="977.68" y2="-336.87" gradientUnits="userSpaceOnUse"><stop offset="0" stop-color="#f5da55"/><stop offset="1" stop-color="#ffec65"/></linearGradient></defs><title>Header</title><g id="Layer_2" data-name="Layer 2"><g id="Layer_1-2" data-name="Layer 1"><path class="cls-1" d="M.22,0h1366V716c-138,31-197-195-267-231-70.94-36.48-139.27,111.37-253,100-110-11-142.5-123.5-189.5-133.5-98.52-21-175,66-251-10-68-68-50.9-179.55-135.5-198.5-125-28-136,266-211,216-28.69-19.13-6.51-265.94-24-269.28C5.22,184,12.09,304,.22,298,.22,298-.28-.5.22,0Z"/></g></g></svg>