<?xml version="1.0" encoding="utf-8"?>
<!-- Generator: Adobe Illustrator 22.1.0, SVG Export Plug-In . SVG Version: 6.00 Build 0)  -->
<svg version="1.1" id="Layer_1" xmlns="http://www.w3.org/2000/svg" xmlns:xlink="http://www.w3.org/1999/xlink" x="0px" y="0px"
	 viewBox="0 0 500 500" style="enable-background:new 0 0 500 500;" xml:space="preserve">
<style type="text/css">
	.st0{fill:#E34F26;}
	.st1{fill:#EF652A;}
	.st2{fill:#EBEBEB;}
	.st3{fill:#FFFFFF;}
</style>
<g>
	<path class="st0" d="M69.8,449.2L29.8,0h440.4l-40,449.2L249.5,500"/>
	<path class="st1" d="M250.5,462.4l145.5-40l34.2-384.8H250.5"/>
	<path class="st2" d="M250.5,205.1h-73.2l-4.9-56.6h78.1V93.8h-1H111.8l1,14.6l13.7,152.3h124V205.1z M250.5,348.6h-1L188,332
		l-3.9-43.9h-29.3h-25.4l6.8,86.9l113.3,31.2h1V348.6z"/>
	<path class="st3" d="M249.5,205.1v55.7h68.4L311,332l-61.5,16.6v57.6L362.8,375l1-9.8l12.7-145.5l2-14.6h-15.6H249.5z M249.5,93.8
		v34.2v20.5l0,0h133.8l0,0l0,0l1-11.7l2.9-28.3l1-14.6H249.5z"/>
</g>
</svg>
