<?xml version="1.0" encoding="utf-8"?>
<!-- Generator: Adobe Illustrator 22.1.0, SVG Export Plug-In . SVG Version: 6.00 Build 0)  -->
<svg version="1.1" id="Layer_1" xmlns="http://www.w3.org/2000/svg" xmlns:xlink="http://www.w3.org/1999/xlink" x="0px" y="0px"
	 viewBox="0 0 500 500" style="enable-background:new 0 0 500 500;" xml:space="preserve">
<g transform="translate(0.000000,1052.000000) scale(0.100000,-0.100000)">
	<path d="M3814,8173.6c-183-14.5-336.5-80.4-450.8-193.7c-117.7-116.7-173.8-259.1-173.8-439.7c0-270.2,110.9-459.1,358.3-608.7
		c63-37.8,148.7-78.9,296.8-142.9c201.9-86.7,277-127.8,324.9-179.2c59.1-63.4,75.5-164.6,38.3-242.1c-7.3-15-26.1-40.2-43.1-57.1
		c-57.1-57.6-147.2-88.1-259.1-88.1c-188.9,0-329.8,77.5-443.1,245c-15.5,22.3-29.5,40.7-31.5,40.7c-4.4,0-372.9-212.6-380.6-219.8
		c-4.8-4.4-1-14.5,17.9-45.5c147.2-247.9,377.2-393.2,688.1-434.9c81.4-11.1,233.9-10.7,311.9,0c195.6,27.6,342.4,92.5,456.2,202.9
		c121.1,116.7,180.6,267.8,180.6,457.1c0,121.1-19.9,215.5-64.9,308.9c-31,63.9-62,107-115.2,161.3
		c-102.2,103.6-234.4,182.1-498.3,295.4c-199.5,85.7-266.3,122.5-310.4,169.5c-42.1,45-60,97.8-56.2,163.7
		c3.4,52.3,17.9,87.6,49.9,122c46,49.9,99.3,70.7,181.6,70.2c93.5,0,154-24.2,215.5-86.2c21.8-21.3,49.9-55.7,63-76.5
		c15-23.7,26.1-36.8,30-35.4c12.6,5.3,364.6,232.9,364.6,236.3c0,1.9-17.9,30-39.7,63c-46.5,69.7-130.3,156.9-187.9,195.1
		c-106.5,70.7-220.3,107-370.4,118.2C3892.9,8179,3883.2,8179,3814,8173.6z"/>
	<path d="M2306.5,7293.8l-1.5-856.1l-10.7-40.2c-14-52.8-30.5-84.3-59.6-113.3c-40.7-40.7-93-57.6-180.1-58.1
		c-124.5-0.5-199,52.3-285.7,200.5c-14,23.2-26.6,42.1-28.1,41.6c-1.9-1-89.6-53.8-194.7-117.2L1355,6234.7l14.5-29.1
		c86.7-172.9,236.8-303.6,417.4-363.7c190.8-63.4,435.8-57.6,615.5,14.5c215.5,87.2,341.9,267.3,375.3,535.1
		c2.9,27.1,4.8,329.8,4.8,899.2v858.6h-237.3h-236.8L2306.5,7293.8z"/>
</g>
</svg>
