<?xml version="1.0" encoding="utf-8"?>
<!-- Generator: Adobe Illustrator 22.1.0, SVG Export Plug-In . SVG Version: 6.00 Build 0)  -->
<svg version="1.1" id="Layer_1" xmlns="http://www.w3.org/2000/svg" xmlns:xlink="http://www.w3.org/1999/xlink" x="0px" y="0px"
	 viewBox="0 0 500 500" style="enable-background:new 0 0 500 500;" xml:space="preserve">
<style type="text/css">
	.st0{fill:#8CC84B;}
</style>
<g>
	<path class="st0" d="M229.5,5.3c12.4-7.1,28.5-7.1,40.9,0c62.3,35.2,124.7,70.4,187,105.6c11.7,6.6,19.6,19.6,19.4,33.1v211.9
		c0.1,14.1-8.5,27.4-20.9,33.9c-62.1,35-124.2,70.1-186.3,105.1c-12.7,7.2-29.1,6.7-41.4-1.2c-18.6-10.8-37.3-21.5-55.9-32.3
		c-3.8-2.3-8.1-4.1-10.8-7.8c2.4-3.2,6.6-3.6,10.1-5c7.8-2.5,14.9-6.4,22.1-10.3c1.8-1.2,4-0.8,5.7,0.3
		c15.9,9.1,31.7,18.5,47.7,27.6c3.4,2,6.9-0.6,9.8-2.3c61-34.4,122-68.8,182.9-103.2c2.3-1.1,3.5-3.5,3.3-6c0-69.9,0-139.8,0-209.7
		c0.3-2.8-1.4-5.4-3.9-6.5C377.4,103.8,315.5,68.9,253.6,34c-2.2-1.5-5.1-1.5-7.3,0c-61.9,34.9-123.7,69.8-185.6,104.7
		c-2.5,1.2-4.2,3.7-3.9,6.5c0,69.9,0,139.8,0,209.7c-0.2,2.5,1.1,4.8,3.4,5.9c16.5,9.4,33.1,18.7,49.6,28c9.3,5,20.7,8,31,4.1
		c9.1-3.2,15.4-12.5,15.2-22.1c0.1-69.5,0-139,0.1-208.4c-0.2-3.1,2.7-5.6,5.7-5.3c7.9-0.1,15.9-0.1,23.8,0c3.3-0.1,5.6,3.2,5.2,6.4
		c0,69.9,0.1,139.8-0.1,209.8c0,18.6-7.6,38.9-24.9,48c-21.2,11-47.5,8.7-68.5-1.9c-18.2-9.1-35.5-19.8-53.3-29.5
		c-12.4-6.4-21-19.8-20.9-33.9V144.1c-0.1-13.8,8-27.1,20.1-33.6C105.3,75.5,167.4,40.4,229.5,5.3z"/>
	<path class="st0" d="M283.7,152.1c27.1-1.7,56.1-1,80.5,12.3c18.9,10.2,29.3,31.7,29.7,52.7c-0.5,2.8-3.5,4.4-6.2,4.2
		c-7.9,0-15.7,0.1-23.6-0.1c-3.3,0.1-5.3-2.9-5.7-5.9c-2.3-10-7.7-20-17.2-24.8c-14.5-7.3-31.3-6.9-47.1-6.7
		c-11.5,0.6-23.9,1.6-33.7,8.4c-7.5,5.1-9.8,15.5-7.1,23.9c2.5,6,9.5,7.9,15.1,9.7c32.6,8.5,67.2,7.7,99.2,18.9
		c13.3,4.6,26.2,13.5,30.8,27.4c5.9,18.6,3.3,40.8-9.9,55.8c-10.7,12.3-26.4,19-42,22.6c-20.7,4.6-42.3,4.7-63.3,2.7
		c-19.8-2.3-40.4-7.5-55.7-21c-13.1-11.4-19.5-29-18.8-46.1c0.2-2.9,3-4.9,5.8-4.7c7.9-0.1,15.8-0.1,23.7,0c3.2-0.2,5.5,2.5,5.7,5.5
		c1.5,9.6,5.1,19.6,13.4,25.3c16.1,10.4,36.3,9.7,54.7,10c15.3-0.7,32.4-0.9,44.8-11c6.6-5.8,8.5-15.4,6.7-23.7
		c-1.9-7-9.2-10.2-15.5-12.4c-32.2-10.2-67.2-6.5-99.1-18c-13-4.6-25.5-13.2-30.5-26.5c-6.9-18.8-3.8-42.1,10.9-56.6
		C243.6,159.6,264.1,154.1,283.7,152.1L283.7,152.1z"/>
</g>
</svg>
