<?xml version="1.0" encoding="utf-8"?>
<!-- Generator: Adobe Illustrator 22.1.0, SVG Export Plug-In . SVG Version: 6.00 Build 0)  -->
<svg version="1.1" id="Layer_1" xmlns="http://www.w3.org/2000/svg" xmlns:xlink="http://www.w3.org/1999/xlink" x="0px" y="0px"
	 viewBox="0 0 500 500" style="enable-background:new 0 0 500 500;" xml:space="preserve">
<style type="text/css">
	.st0{display:none;fill:#FFFFFF;}
	.st1{fill:#61DAFB;}
</style>
<path class="st0" d="M454.8,0H45.7C20.7,0,0.5,20.2,0.5,45.2v409.1c0,25,20.2,45.2,45.2,45.2h409.1c25,0,45.2-20.2,45.2-45.2V45.2
	C500,20.2,479.8,0,454.8,0z M155.1,431.3c0,7.3-5.9,13.1-13.1,13.1h-56c-7.3,0-13.1-5.9-13.1-13.1V196.7c0-7.3,5.9-13.1,13.1-13.1
	h56c7.3,0,13.1,5.9,13.1,13.1V431.3z M113.9,161.4c-29.4,0-53.2-23.8-53.2-53.2S84.6,55,113.9,55s53.2,23.8,53.2,53.2
	S143.3,161.4,113.9,161.4z M447.6,432.4c0,6.7-5.4,12.1-12.1,12.1h-60.1c-6.7,0-12.1-5.4-12.1-12.1V322.3c0-16.4,4.8-71.9-42.9-71.9
	c-37,0-44.5,38-46,55.1v126.9c0,6.7-5.4,12.1-12.1,12.1h-58.1c-6.7,0-12.1-5.4-12.1-12.1V195.6c0-6.7,5.4-12.1,12.1-12.1h58.1
	c6.7,0,12.1,5.4,12.1,12.1v20.5c13.7-20.6,34.1-36.5,77.6-36.5c96.2,0,95.6,89.9,95.6,139.2L447.6,432.4L447.6,432.4z"/>
<g>
	<path class="st1" d="M500,250.1c0-33.1-41.5-64.5-105.1-84c14.7-64.8,8.2-116.4-20.6-132.9c-6.6-3.9-14.4-5.7-22.8-5.7v22.7
		c4.7,0,8.5,0.9,11.6,2.6C377,60.8,383,91.1,378.3,130c-1.1,9.6-3,19.7-5.2,30c-20-4.9-41.8-8.7-64.7-11.1c-13.8-18.9-28-36-42.4-51
		c33.2-30.9,64.4-47.8,85.6-47.8V27.4l0,0c-28,0-64.7,20-101.8,54.6C212.7,47.5,176,27.8,148,27.8v22.7c21.1,0,52.4,16.8,85.6,47.5
		c-14.3,15-28.5,32-42.1,50.9c-23,2.4-44.8,6.2-64.8,11.2c-2.3-10.2-4.1-20.1-5.3-29.6c-4.8-38.9,1.1-69.2,14.9-77.3
		c3.1-1.8,7-2.6,11.7-2.6V27.9l0,0c-8.6,0-16.3,1.8-23,5.7c-28.6,16.5-35.1,68-20.3,132.6C41.3,185.7,0,217,0,250.1
		c0,33.1,41.5,64.5,105.1,84c-14.7,64.8-8.2,116.4,20.6,132.9c6.6,3.9,14.4,5.7,22.9,5.7c28,0,64.7-20,101.8-54.6
		c37.1,34.4,73.8,54.2,101.8,54.2c8.6,0,16.3-1.8,23-5.7c28.6-16.5,35.1-68,20.3-132.6C458.7,314.5,500,283.1,500,250.1z
		 M367.3,182.1c-3.8,13.1-8.5,26.7-13.8,40.3c-4.2-8.2-8.6-16.3-13.4-24.5c-4.7-8.2-9.7-16.1-14.7-23.8
		C340,176.2,354,178.8,367.3,182.1z M320.6,290.6c-7.9,13.8-16.1,26.8-24.6,38.9c-15.2,1.3-30.6,2-46.1,2c-15.4,0-30.8-0.7-45.9-1.9
		c-8.5-12.1-16.7-25.1-24.7-38.7c-7.7-13.4-14.8-26.9-21.2-40.6c6.3-13.7,13.5-27.3,21.1-40.7c7.9-13.8,16.1-26.8,24.6-38.9
		c15.2-1.3,30.6-2,46.1-2c15.4,0,30.8,0.7,45.9,1.9c8.5,12.1,16.7,25.1,24.7,38.7c7.7,13.4,14.8,26.9,21.2,40.6
		C335.3,263.6,328.3,277.3,320.6,290.6z M353.5,277.4c5.5,13.7,10.2,27.3,14.1,40.6c-13.4,3.3-27.4,6-42,8.2
		c5-7.8,10-15.9,14.7-24.2C345,293.8,349.4,285.5,353.5,277.4z M250.2,386.1c-9.5-9.8-19-20.7-28.3-32.6c9.2,0.4,18.5,0.7,28,0.7
		c9.6,0,19.1-0.2,28.3-0.7C269.1,365.4,259.6,376.3,250.2,386.1z M174.4,326.1c-14.5-2.1-28.4-4.8-41.8-8.1
		c3.8-13.1,8.5-26.7,13.8-40.3c4.2,8.2,8.6,16.3,13.4,24.5C164.5,310.4,169.4,318.3,174.4,326.1z M249.7,114
		c9.5,9.8,19,20.7,28.3,32.6c-9.2-0.4-18.5-0.7-28-0.7c-9.6,0-19.1,0.2-28.3,0.7C230.8,134.7,240.3,123.8,249.7,114z M174.3,174
		c-5,7.8-10,15.9-14.7,24.2c-4.7,8.2-9.1,16.3-13.2,24.5c-5.5-13.7-10.2-27.3-14.1-40.6C145.6,178.9,159.7,176.2,174.3,174z
		 M82,301.6c-36.1-15.4-59.4-35.6-59.4-51.6S46,213.8,82,198.5c8.8-3.8,18.3-7.1,28.2-10.3c5.8,20,13.5,40.8,22.9,62.1
		c-9.4,21.2-16.9,41.9-22.6,61.8C100.5,308.9,90.9,305.4,82,301.6z M136.9,447.3c-13.9-7.9-19.9-38.2-15.2-77.2
		c1.1-9.6,3-19.7,5.2-30c20,4.9,41.8,8.7,64.7,11.1c13.8,18.9,28,36,42.4,51c-33.2,30.9-64.4,47.8-85.6,47.8
		C143.8,449.9,139.9,449,136.9,447.3z M378.6,369.6c4.8,38.9-1.1,69.2-14.9,77.3c-3.1,1.8-7,2.6-11.7,2.6
		c-21.1,0-52.4-16.8-85.6-47.5c14.3-15,28.5-32,42.1-50.9c23-2.4,44.8-6.2,64.8-11.2C375.7,350.2,377.5,360.1,378.6,369.6z
		 M417.9,301.6c-8.8,3.8-18.3,7.1-28.2,10.3c-5.8-20-13.5-40.8-22.9-62.1c9.4-21.2,16.9-41.9,22.6-61.8c10.1,3.2,19.7,6.6,28.6,10.4
		c36.1,15.4,59.4,35.6,59.4,51.6C477.3,266.1,453.9,286.3,417.9,301.6z"/>
	<path class="st1" d="M147.9,27.8L147.9,27.8L147.9,27.8z"/>
	<circle class="st1" cx="249.9" cy="250.1" r="46.6"/>
	<path class="st1" d="M351.4,27.5L351.4,27.5L351.4,27.5z"/>
</g>
</svg>
