<?xml version="1.0" encoding="utf-8"?>
<!-- Generator: Adobe Illustrator 22.1.0, SVG Export Plug-In . SVG Version: 6.00 Build 0)  -->
<svg version="1.1" id="Layer_1" xmlns="http://www.w3.org/2000/svg" xmlns:xlink="http://www.w3.org/1999/xlink" x="0px" y="0px"
	 viewBox="0 0 500 500" style="enable-background:new 0 0 500 500;" xml:space="preserve">
<style type="text/css">
	.st0{fill:#FFFFFF;}
</style>
<path class="st0" d="M429.1,273.6c-17.4,0.1-32.4,4.3-45,10.5c-4.7-9.2-9.3-17.3-10.1-23.3c-0.9-7-1.9-11.2-0.9-19.6
	c1.1-8.3,5.9-20.2,5.9-21.1c-0.1-0.9-1.1-5.1-11.1-5.2c-10-0.1-18.6,1.9-19.6,4.6c-1,2.6-2.9,8.6-4.2,14.8
	c-1.7,9.1-20,41.4-30.3,58.4c-3.4-6.6-6.3-12.4-6.9-17.1c-0.9-7-1.9-11.2-0.9-19.6c1.1-8.3,5.9-20.2,5.9-21.1
	c-0.1-0.9-1.1-5.1-11.1-5.2c-10-0.1-18.6,1.9-19.6,4.6c-1,2.6-2,8.8-4.2,14.8c-2,6-26.3,59.9-32.6,74c-3.2,7.2-6,12.9-8,16.8
	c-2,3.9-0.1,0.3-0.3,0.7c-1.7,3.3-2.7,5.1-2.7,5.1v0.1c-1.4,2.4-2.8,4.7-3.5,4.7c-0.5,0-1.5-6.5,0.2-15.4
	c3.6-18.7,12.3-47.9,12.2-49c0-0.5,1.6-5.6-5.6-8.2c-7.1-2.6-9.6,1.7-10.2,1.7s-1.1,1.6-1.1,1.6s7.9-32.9-15-32.9
	c-14.3,0-34.1,15.6-43.9,29.9c-6.2,3.4-19.4,10.6-33.3,18.2c-5.3,2.9-10.9,6-16.1,8.8l-1.1-1.2c-27.7-29.6-79-50.5-76.9-90.2
	c0.8-14.4,5.8-52.5,98.5-98.7c75.9-37.8,136.7-27.4,147.2-4.4c15,33-32.5,94.2-111.4,103c-30.1,3.4-45.9-8.2-49.8-12.6
	c-4.2-4.6-4.7-4.7-6.3-3.9c-2.5,1.4-1,5.4,0,7.9c2.3,6.1,12,17,28.5,22.4c14.4,4.7,49.7,7.4,92.4-9.1
	c47.8-18.5,85.1-69.9,74.2-112.8C301.5,61.8,229,47.5,160.5,71.8c-40.8,14.5-85,37.2-116.8,67C5.8,174.1-0.2,204.9,2.4,217.7
	c8.8,45.7,71.7,75.4,96.9,97.4c-1.3,0.7-2.4,1.4-3.5,1.9c-12.6,6.2-60.6,31.3-72.6,57.9c-13.6,30.1,2.1,51.7,12.6,54.6
	c32.4,9,65.5-7.2,83.5-33.8c17.8-26.7,15.7-61.3,7.5-77.1l-0.3-0.6l9.9-5.8c6.4-3.8,12.7-7.3,18.2-10.3c-3.1,8.4-5.3,18.4-6.5,33
	c-1.4,17.1,5.6,39.2,14.8,47.9c4.1,3.8,8.9,3.9,11.9,3.9c10.7,0,15.5-8.8,20.8-19.4c6.6-12.9,12.4-27.8,12.4-27.8
	s-7.3,40.4,12.6,40.4c7.3,0,14.5-9.4,17.8-14.2v0.1c0,0,0.2-0.3,0.6-1c0.8-1.2,1.2-1.8,1.2-1.8v-0.2c2.9-5,9.4-16.6,19.1-35.7
	c12.5-24.6,24.5-55.4,24.5-55.4s1.2,7.6,4.7,20c2.1,7.4,6.8,15.4,10.4,23.3c-2.9,4.1-4.7,6.4-4.7,6.4l0.1,0.1
	c-2.3,3.1-4.9,6.4-7.7,9.7c-9.9,11.8-21.7,25.3-23.3,29.2c-1.8,4.6-1.5,7.9,2.1,10.7c2.6,1.9,7.3,2.3,12.2,1.9
	c8.9-0.6,15.1-2.8,18.2-4.2c4.8-1.7,10.4-4.4,15.7-8.2c9.7-7.2,15.6-17.4,15-30.9c-0.3-7.5-2.7-14.8-5.7-21.8
	c0.9-1.3,1.7-2.5,2.6-3.9c15.3-22.4,27.1-47,27.1-47s1.2,7.6,4.7,20c1.8,6.3,5.5,13.2,8.8,20c-14.3,11.7-23.4,25.3-26.5,34.2
	c-5.7,16.5-1.3,23.9,7.2,25.7c3.8,0.8,9.2-1,13.3-2.7c5-1.6,11.1-4.5,16.8-8.6c9.7-7.2,19-17.2,18.5-30.6
	c-0.3-6.2-1.9-12.3-4.2-18.1c12.2-5,28-7.9,48.1-5.5c43.1,5,51.7,32,50,43.2c-1.6,11.2-10.7,17.4-13.7,19.4c-3,1.8-4,2.5-3.7,3.9
	c0.4,2,1.7,1.9,4.4,1.6c3.6-0.6,22.7-9.2,23.5-30C499.3,302.4,474,273.3,429.1,273.6L429.1,273.6z M96.4,385.8
	c-14.2,15.6-34.3,21.5-42.8,16.5c-9.2-5.3-5.6-28.3,11.9-44.9C76.1,347.3,90,338,99.1,332.3c2-1.3,5.1-3.1,8.8-5.3
	c0.6-0.4,1-0.6,1-0.6c0.7-0.4,1.5-0.9,2.2-1.4C117.6,348.6,111.4,369.4,96.4,385.8L96.4,385.8z M200.6,314.9
	c-4.9,12.1-15.4,43.2-21.7,41.5c-5.4-1.5-8.7-25-1.1-48.3c3.9-11.7,12.1-25.7,17-31.1c7.9-8.7,16.4-11.6,18.5-8
	C215.8,273.6,203.7,307.3,200.6,314.9z M286.6,356c-2.1,1.1-4.1,1.8-4.9,1.3c-0.7-0.4,0.9-1.8,0.9-1.8s10.8-11.5,15-16.9
	c2.4-3.1,5.3-6.7,8.4-10.8v1.2C306,342.9,292.6,352.2,286.6,356z M352.9,340.9c-1.6-1.2-1.4-4.8,3.9-16c2-4.5,6.7-11.9,14.7-19
	c1,2.9,1.6,5.7,1.5,8.3C372.9,331.7,360.4,338.2,352.9,340.9z"/>
</svg>
