<?xml version="1.0" encoding="utf-8"?>
<!-- Generator: Adobe Illustrator 22.1.0, SVG Export Plug-In . SVG Version: 6.00 Build 0)  -->
<svg version="1.1" id="Layer_1" xmlns="http://www.w3.org/2000/svg" xmlns:xlink="http://www.w3.org/1999/xlink" x="0px" y="0px"
	 viewBox="0 0 500 500" style="enable-background:new 0 0 500 500;" xml:space="preserve">
<style type="text/css">
	.st0{fill:#FFFFFF;}
	.st1{fill:#8ED6FB;}
	.st2{fill:#1C78C0;}
</style>
<path class="st0" d="M250,2.9l218.4,123.6v247.1L250,497.1L31.6,373.6V126.4L250,2.9z"/>
<path class="st1" d="M429.8,365l-172.2,97.4v-75.9l107.3-59L429.8,365z M441.6,354.4V150.7l-63,36.4V318L441.6,354.4L441.6,354.4z
	 M70.2,365l172.2,97.4v-75.9l-107.3-59L70.2,365L70.2,365z M58.4,354.4V150.7l63,36.4V318L58.4,354.4L58.4,354.4z M65.8,137.5
	l176.6-99.9v73.4l-113.1,62.2l-0.9,0.5L65.8,137.5z M434.2,137.5L257.6,37.5v73.4l113.1,62.2l0.9,0.5L434.2,137.5z"/>
<path class="st2" d="M242.4,372.7l-105.9-58.2V199.1l105.9,61.1V372.7 M257.6,372.7l105.9-58.2V199.1l-105.9,61.1V372.7
	 M143.8,185.8L250,127.3l106.3,58.4L250,247.2L143.8,185.8"/>
</svg>
